<svg width="63" height="63" viewBox="0 0 63 63" fill="none" xmlns="http://www.w3.org/2000/svg">
<path fill-rule="evenodd" clip-rule="evenodd" d="M25.9521 6.75302L33.7209 9.77382L10.5268 18.7927L2.40088 15.6329L25.2386 6.75302C25.477 6.66012 25.7135 6.66012 25.9521 6.75302ZM50.1436 32.6931C56.667 32.6931 61.9551 37.9816 61.9551 44.505C61.9551 51.0285 56.6669 56.3168 50.1436 56.3168C43.6202 56.3168 38.3316 51.0285 38.3316 44.505C38.3316 37.9816 43.6201 32.6931 50.1436 32.6931ZM54.6159 39.1185L47.6189 46.1155L45.2313 43.1105C44.644 42.3718 43.5687 42.249 42.8299 42.8363C42.0909 43.4236 41.9681 44.4987 42.5555 45.2376L46.0696 49.6595C46.6772 50.5299 47.9282 50.649 48.6853 49.8918L57.0371 41.5398C57.706 40.8712 57.706 39.7872 57.0371 39.1185C56.3685 38.4499 55.2846 38.4499 54.6159 39.1185ZM42.0167 12.9995C34.2854 16.006 26.5541 19.0124 18.8223 22.0182L25.5952 24.6517L48.7896 15.6329L42.0167 12.9995ZM50.1436 17.2119L26.5796 26.3743V53.6675L37.297 49.5002C36.6943 47.9516 36.3631 46.2672 36.3631 44.505C36.3631 36.8943 42.5327 30.7246 50.1436 30.7246V17.2119ZM24.6108 53.6673V26.3743L17.4688 23.5974V29.3607C17.4688 29.6392 17.1434 29.7896 16.9315 29.609L13.141 26.3807L9.59617 27.4831C9.38515 27.5488 9.17314 27.3928 9.17314 27.1719V20.3717L1.04688 17.212V43.8315C1.04688 44.2458 1.28866 44.599 1.67491 44.7491L24.6108 53.6673Z" fill="#1782C5"/>
</svg>
