<svg width="20" height="27" viewBox="0 0 20 27" fill="none" xmlns="http://www.w3.org/2000/svg">
<path d="M3.8191 1.05945L5.24074 0.605374C6.5713 0.180334 7.99426 0.868054 8.5645 2.21181L9.6997 4.88877C10.1947 6.05433 9.92014 7.42581 9.02122 8.27853L6.52246 10.6519C6.67646 12.0722 7.15342 13.4701 7.95334 14.8455C8.71402 16.1759 9.73328 17.3406 10.9511 18.2709L13.9554 17.2677C15.0932 16.8889 16.3327 17.3258 17.031 18.3515L18.6572 20.7407C19.4703 21.9339 19.3238 23.5787 18.3167 24.5898L17.2369 25.6735C16.1624 26.7519 14.6286 27.144 13.2083 26.7005C9.85722 25.655 6.7759 22.5517 3.9643 17.3905C1.14918 12.2205 0.155663 7.83457 0.983743 4.23273C1.33222 2.71737 2.41198 1.50957 3.82174 1.05945" fill="black"/>
</svg>
