<svg width="66" height="66" viewBox="0 0 66 66" fill="none" xmlns="http://www.w3.org/2000/svg">
<rect x="0.460859" y="0.460859" width="65.0783" height="65.0783" rx="14.2866" fill="white" stroke="#CDCDCD" stroke-width="0.921718"/>
<path d="M42.9443 46.9557L36.5385 42.6851C36.2519 42.4959 35.8681 42.5582 35.6561 42.8283L33.7909 45.2263C33.1864 46.0141 32.0954 46.2389 31.2287 45.7543L30.8839 45.5649C29.6398 44.8862 28.0909 44.0418 25.0163 40.9672C21.9417 37.8926 21.0967 36.3437 20.4186 35.0989L20.2285 34.7541C19.744 33.8876 19.9689 32.7968 20.7566 32.1926L23.1539 30.3268C23.4242 30.1149 23.4866 29.7309 23.2971 29.4444L19.0272 23.0379C18.833 22.7472 18.4449 22.6598 18.1448 22.839L15.4645 24.4462C14.8895 24.7819 14.4666 25.3269 14.2842 25.9673C14.2827 30.3268 12.2303 35.9738 20.7558 44.5C29.2813 53.0262 36.8072 52.5802 40.0155 51.6992C40.656 51.5166 41.201 51.0935 41.5365 50.5182L43.1431 47.8379C43.3228 47.538 43.2353 47.1497 42.9443 46.9557Z" fill="black"/>
<path d="M51.8909 16.1257C51.8207 16.0555 51.7251 16.0165 51.6258 16.0176H23.1871C23.0877 16.0165 22.9921 16.0555 22.9219 16.1257C22.8517 16.1959 22.8127 16.2915 22.8138 16.3909V26.2718L24.4264 28.6908C25.0081 29.5696 24.8169 30.7477 23.9873 31.3976L21.5921 33.2634C21.3357 33.4579 21.2612 33.8113 21.417 34.0928L21.6124 34.4492C22.2356 35.6344 22.9958 36.7425 23.8774 37.7505H51.6258C51.8294 37.752 51.9961 37.589 51.9991 37.3854V16.3909C52.0002 16.2915 51.9612 16.1959 51.8909 16.1257ZM32.6071 28.4695V28.4661L25.6543 35.9151C25.3986 36.1893 24.9691 36.2043 24.6949 35.9487C24.4207 35.6931 24.4057 35.2635 24.6613 34.9894L31.6142 27.5438C31.8698 27.2695 32.2994 27.2545 32.5735 27.5101C32.8477 27.7658 32.8628 28.1953 32.6071 28.4695ZM37.4064 27.9347C36.9173 27.9369 36.4407 27.7797 36.0489 27.4867L24.7047 18.8845C24.406 18.657 24.3483 18.2303 24.5758 17.9316C24.8033 17.6328 25.23 17.5751 25.5288 17.8026L36.8683 26.4048C37.1892 26.638 37.6238 26.638 37.9448 26.4048L49.2876 17.8026C49.5863 17.576 50.0122 17.6345 50.2388 17.9333C50.4655 18.232 50.4069 18.6579 50.1082 18.8845L38.7639 27.4867C38.3721 27.7797 37.8956 27.9369 37.4064 27.9347ZM50.1611 35.9484C50.0295 36.0714 49.8544 36.1369 49.6743 36.1307C49.4943 36.1245 49.3242 36.047 49.2014 35.9152L42.2492 28.4661C42.013 28.1893 42.0372 27.7754 42.3039 27.528C42.5707 27.2805 42.9852 27.2875 43.2435 27.5438L50.1944 34.9894C50.4499 35.2634 50.435 35.6927 50.1611 35.9484Z" fill="black"/>
</svg>
