<svg width="63" height="63" viewBox="0 0 63 63" fill="none" xmlns="http://www.w3.org/2000/svg">
<path d="M45.2363 40.236C44.7999 37.2711 43.3153 34.5608 41.0517 32.5968C38.7882 30.6328 35.8956 29.5451 32.8988 29.5312H30.1058C27.109 29.5451 24.2164 30.6328 21.9528 32.5968C19.6892 34.5608 18.2046 37.2711 17.7683 40.236L16.4295 49.5967C16.3868 49.8993 16.415 50.2077 16.5121 50.4975C16.6091 50.7873 16.7723 51.0505 16.9887 51.2662C17.5137 51.7912 20.7345 54.4687 31.5049 54.4687C42.2753 54.4687 45.4883 51.8017 46.0212 51.2662C46.2375 51.0505 46.4007 50.7873 46.4977 50.4975C46.5948 50.2077 46.6231 49.8993 46.5803 49.5967L45.2363 40.236Z" fill="#1782C5"/>
<path d="M19.8452 30.9751C17.3082 33.3138 15.6576 36.4576 15.1727 39.8738L14.2015 46.5938C6.40522 46.5413 4.04272 43.7063 3.64897 43.1288C3.49677 42.919 3.38816 42.6809 3.32955 42.4284C3.27093 42.1759 3.26351 41.9142 3.30772 41.6588L3.88522 38.4038C4.18611 36.7027 4.89276 35.0992 5.94525 33.7293C6.99775 32.3594 8.36506 31.2635 9.93125 30.5345C11.4974 29.8055 13.2163 29.4649 14.9422 29.5416C16.668 29.6183 18.3499 30.11 19.8452 30.9751Z" fill="#1782C5"/>
<path d="M59.6918 41.6588C59.736 41.9142 59.7286 42.1759 59.67 42.4284C59.6114 42.6809 59.5028 42.919 59.3506 43.1288C58.9568 43.7063 56.5943 46.5413 48.798 46.5938L47.8268 39.8738C47.342 36.4576 45.6913 33.3138 43.1543 30.9751C44.6496 30.11 46.3315 29.6183 48.0574 29.5416C49.7832 29.4649 51.5021 29.8055 53.0683 30.5345C54.6345 31.2635 56.0018 32.3594 57.0543 33.7293C58.1068 35.0992 58.8134 36.7027 59.1143 38.4038L59.6918 41.6588Z" fill="#1782C5"/>
<path d="M20.2912 25.2C19.6305 26.1371 18.7533 26.9009 17.7342 27.4264C16.715 27.952 15.5841 28.2238 14.4375 28.2187C13.2937 28.2187 12.1662 27.9469 11.1481 27.4257C10.1299 26.9045 9.25015 26.1488 8.58135 25.2209C7.91254 24.293 7.47381 23.2194 7.30131 22.0886C7.12881 20.9579 7.22748 19.8024 7.58919 18.7172C7.9509 17.6321 8.56529 16.6485 9.38174 15.8474C10.1982 15.0463 11.1933 14.4507 12.2851 14.1096C13.3769 13.7686 14.5341 13.6918 15.6614 13.8858C16.7886 14.0797 17.8537 14.5387 18.7687 15.225C18.5056 16.2543 18.3733 17.3126 18.375 18.375C18.377 20.7825 19.0398 23.1433 20.2912 25.2Z" fill="#1782C5"/>
<path d="M55.7815 21C55.7822 21.9482 55.5959 22.8872 55.2334 23.7633C54.8709 24.6394 54.3392 25.4355 53.6687 26.106C52.9982 26.7764 52.2022 27.3081 51.326 27.6707C50.4499 28.0332 49.5109 28.2194 48.5627 28.2188C47.4161 28.2238 46.2852 27.952 45.2661 27.4264C44.247 26.9009 43.3698 26.1371 42.709 25.2C43.9604 23.1433 44.6232 20.7825 44.6252 18.375C44.627 17.3126 44.4947 16.2543 44.2315 15.225C45.304 14.4206 46.5793 13.9308 47.9144 13.8104C49.2496 13.69 50.592 13.9438 51.7911 14.5434C52.9901 15.1429 53.9986 16.0645 54.7034 17.2049C55.4082 18.3453 55.7815 19.6594 55.7815 21Z" fill="#1782C5"/>
<path d="M31.5 28.2188C36.9366 28.2188 41.3438 23.8116 41.3438 18.375C41.3438 12.9384 36.9366 8.53125 31.5 8.53125C26.0634 8.53125 21.6562 12.9384 21.6562 18.375C21.6562 23.8116 26.0634 28.2188 31.5 28.2188Z" fill="#1782C5"/>
</svg>
