<svg width="16" height="16" viewBox="0 0 16 16" fill="none" xmlns="http://www.w3.org/2000/svg">
<path d="M12.25 12.7812V14.5C12.25 14.5663 12.2237 14.6299 12.1768 14.6768C12.1299 14.7237 12.0663 14.75 12 14.75C11.9337 14.75 11.8701 14.7237 11.8233 14.6768C11.7764 14.6299 11.75 14.5663 11.75 14.5V12.7812C11.7528 11.9914 11.5341 11.2166 11.1188 10.5447C10.7036 9.87283 10.1083 9.33077 9.40066 8.98L6.37503 7.4675C5.58411 7.0751 4.91895 6.46894 4.45498 5.71775C3.99101 4.96657 3.7468 4.10041 3.75003 3.2175V1.5C3.75003 1.4337 3.77637 1.37011 3.82326 1.32322C3.87014 1.27634 3.93373 1.25 4.00003 1.25C4.06634 1.25 4.12992 1.27634 4.17681 1.32322C4.22369 1.37011 4.25003 1.4337 4.25003 1.5V3.21875C4.2473 4.0086 4.46597 4.7834 4.88122 5.45528C5.29648 6.12717 5.89172 6.66923 6.59941 7.02L9.62441 8.5325C10.4153 8.92472 11.0804 9.53065 11.5445 10.2816C12.0086 11.0325 12.253 11.8985 12.25 12.7812ZM10 12.75H4.25003C4.25389 12.2367 4.35109 11.7285 4.53691 11.25H9.25628C9.32259 11.25 9.38617 11.2237 9.43306 11.1768C9.47994 11.1299 9.50628 11.0663 9.50628 11C9.50628 10.9337 9.47994 10.8701 9.43306 10.8232C9.38617 10.7763 9.32259 10.75 9.25628 10.75H4.76878C5.06653 10.2015 5.48159 9.72537 5.98441 9.35563C6.03786 9.31626 6.07349 9.25727 6.08346 9.19163C6.09342 9.12599 6.0769 9.05908 6.03753 9.00562C5.99816 8.95217 5.93917 8.91654 5.87353 8.90658C5.8079 8.89661 5.74099 8.91313 5.68753 8.9525C5.08774 9.39479 4.60002 9.97156 4.26354 10.6365C3.92705 11.3014 3.75117 12.036 3.75003 12.7812V14.5C3.75003 14.5663 3.77637 14.6299 3.82326 14.6768C3.87014 14.7237 3.93373 14.75 4.00003 14.75C4.06634 14.75 4.12992 14.7237 4.17681 14.6768C4.22369 14.6299 4.25003 14.5663 4.25003 14.5V13.25H10C10.0663 13.25 10.1299 13.2237 10.1768 13.1768C10.2237 13.1299 10.25 13.0663 10.25 13C10.25 12.9337 10.2237 12.8701 10.1768 12.8232C10.1299 12.7763 10.0663 12.75 10 12.75ZM12 1.25C11.9337 1.25 11.8701 1.27634 11.8233 1.32322C11.7764 1.37011 11.75 1.4337 11.75 1.5V2.75H6.00003C5.93373 2.75 5.87014 2.77634 5.82325 2.82322C5.77637 2.87011 5.75003 2.9337 5.75003 3C5.75003 3.0663 5.77637 3.12989 5.82325 3.17678C5.87014 3.22366 5.93373 3.25 6.00003 3.25H11.75C11.7462 3.76326 11.649 4.27154 11.4632 4.75H6.74316C6.67685 4.75 6.61326 4.77634 6.56638 4.82322C6.5195 4.87011 6.49316 4.9337 6.49316 5C6.49316 5.0663 6.5195 5.12989 6.56638 5.17678C6.61326 5.22366 6.67685 5.25 6.74316 5.25H11.2313C10.9335 5.79853 10.5185 6.27463 10.0157 6.64437C9.98919 6.66383 9.96681 6.6883 9.9498 6.7164C9.93279 6.7445 9.92148 6.77568 9.91652 6.80815C9.91155 6.84062 9.91304 6.87375 9.92088 6.90565C9.92872 6.93755 9.94277 6.96759 9.96222 6.99406C9.98167 7.02053 10.0061 7.04291 10.0342 7.05992C10.0623 7.07693 10.0935 7.08824 10.126 7.0932C10.1585 7.09817 10.1916 7.09668 10.2235 7.08884C10.2554 7.081 10.2854 7.06695 10.3119 7.0475C10.9118 6.60528 11.3997 6.02853 11.7362 5.36359C12.0728 4.69864 12.2488 3.96403 12.25 3.21875V1.5C12.25 1.4337 12.2237 1.37011 12.1768 1.32322C12.1299 1.27634 12.0663 1.25 12 1.25Z" fill="black"/>
</svg>
