<svg width="63" height="63" viewBox="0 0 63 63" fill="none" xmlns="http://www.w3.org/2000/svg">
<g clip-path="url(#clip0_1563_1804)">
<path d="M19.0723 0H1.8457C0.826383 0 0 0.826383 0 1.8457V6.15234H20.918V1.8457C20.918 0.826383 20.0916 0 19.0723 0Z" fill="#1782C5"/>
<path d="M62.0727 17.5943C61.4991 17.2653 60.7934 17.2682 60.2226 17.6021L41.959 28.2826V19.1953C41.959 18.5341 41.6052 17.9234 41.0317 17.5943C40.4581 17.2653 39.7524 17.2682 39.1816 17.6021L20.918 28.2826V9.84375H0V61.1543C0 62.1736 0.826383 63 1.8457 63H61.1543C62.1736 63 63 62.1736 63 61.1543V19.1953C63 18.5341 62.6462 17.9234 62.0727 17.5943ZM28.3008 50.0186C28.3008 51.0379 27.4744 51.8643 26.4551 51.8643H19.0723C18.0529 51.8643 17.2266 51.0379 17.2266 50.0186V42.6357C17.2266 41.6164 18.0529 40.79 19.0723 40.79H26.4551C27.4744 40.79 28.3008 41.6164 28.3008 42.6357V50.0186ZM49.3418 50.0186C49.3418 51.0379 48.5154 51.8643 47.4961 51.8643H40.1133C39.094 51.8643 38.2676 51.0379 38.2676 50.0186V42.6357C38.2676 41.6164 39.094 40.79 40.1133 40.79H47.4961C48.5154 40.79 49.3418 41.6164 49.3418 42.6357V50.0186Z" fill="#1782C5"/>
</g>
<defs>
<clipPath id="clip0_1563_1804">
<rect width="63" height="63" fill="white"/>
</clipPath>
</defs>
</svg>
