<svg width="66" height="66" viewBox="0 0 66 66" fill="none" xmlns="http://www.w3.org/2000/svg">
<rect x="0.460859" y="0.460859" width="65.0783" height="65.0783" rx="14.2866" fill="white" stroke="#CDCDCD" stroke-width="0.921718"/>
<path d="M32.9993 10C23.8132 10 16.3398 17.4734 16.3398 26.6594C16.3398 38.0595 31.2484 54.7955 31.8832 55.5024C32.4794 56.1664 33.5203 56.1652 34.1154 55.5024C34.7502 54.7955 49.6588 38.0595 49.6588 26.6594C49.6586 17.4734 42.1853 10 32.9993 10ZM32.9993 35.0412C28.3776 35.0412 24.6176 31.2811 24.6176 26.6594C24.6176 22.0376 28.3776 18.2777 32.9993 18.2777C37.621 18.2777 41.3809 22.0377 41.3809 26.6595C41.3809 31.2812 37.621 35.0412 32.9993 35.0412Z" fill="black"/>
</svg>
