<svg width="30" height="31" viewBox="0 0 30 31" fill="none" xmlns="http://www.w3.org/2000/svg">
<path d="M15 0C6.72903 0 0 6.74415 0 15.0337C0 23.3226 6.72903 30.0674 15 30.0674C23.2704 30.0674 30 23.3226 30 15.0337C30 6.74415 23.2716 0 15 0ZM18.7304 15.563H16.29V24.2806H12.6738C12.6738 24.2806 12.6738 19.5173 12.6738 15.563H10.9548V12.4819H12.6738V10.4889C12.6738 9.06164 13.3505 6.83135 16.3232 6.83135L19.0029 6.84165V9.83252C19.0029 9.83252 17.3745 9.83252 17.0579 9.83252C16.7413 9.83252 16.2912 9.99118 16.2912 10.6718V12.4825H19.0464L18.7304 15.563Z" fill="black"/>
</svg>
