<svg width="30" height="31" viewBox="0 0 30 31" fill="none" xmlns="http://www.w3.org/2000/svg">
<path d="M15.0037 0H14.9963C6.72563 0 0 6.74261 0 15.0337C0 18.3223 1.0575 21.3704 2.85562 23.8453L0.98625 29.4303L6.75187 27.5831C9.12375 29.1579 11.9531 30.0674 15.0037 30.0674C23.2744 30.0674 30 23.3229 30 15.0337C30 6.74449 23.2744 0 15.0037 0ZM23.7319 21.2295C23.37 22.2536 21.9338 23.103 20.7881 23.3511C20.0044 23.5183 18.9806 23.6518 15.5344 22.2198C11.1262 20.3895 8.2875 15.9 8.06625 15.6087C7.85437 15.3175 6.285 13.2315 6.285 11.0742C6.285 8.91686 7.37813 7.86638 7.81875 7.41537C8.18062 7.04517 8.77875 6.87604 9.3525 6.87604C9.53813 6.87604 9.705 6.88543 9.855 6.89295C10.2956 6.91174 10.5169 6.93805 10.8075 7.63524C11.1694 8.50907 12.0506 10.6664 12.1556 10.8882C12.2625 11.1099 12.3694 11.4106 12.2194 11.7019C12.0788 12.0025 11.955 12.136 11.7337 12.3915C11.5125 12.6471 11.3025 12.8425 11.0812 13.1169C10.8787 13.3556 10.65 13.6111 10.905 14.0527C11.16 14.485 12.0413 15.9263 13.3387 17.0839C15.0131 18.5779 16.3706 19.0552 16.8562 19.2582C17.2181 19.4085 17.6494 19.3728 17.9137 19.0909C18.2494 18.7282 18.6637 18.1269 19.0856 17.5349C19.3856 17.1102 19.7644 17.0576 20.1619 17.2079C20.5669 17.3489 22.71 18.4106 23.1506 18.6305C23.5912 18.8523 23.8819 18.9575 23.9887 19.1435C24.0938 19.3296 24.0938 20.2034 23.7319 21.2295Z" fill="black"/>
</svg>
