<svg width="36" height="36" viewBox="0 0 36 36" fill="none" xmlns="http://www.w3.org/2000/svg">
<g clip-path="url(#clip0_1347_1769)" filter="url(#filter0_d_1347_1769)">
<path d="M4.59225 13.8327C4.5916 16.1852 5.2063 18.4823 6.37514 20.507L4.48047 27.4247L11.5599 25.5685C13.518 26.6344 15.7119 27.193 17.9413 27.1931H17.9472C25.3069 27.1931 31.298 21.2043 31.3011 13.8432C31.3025 10.2762 29.9147 6.9221 27.3932 4.39862C24.8721 1.87537 21.5191 0.485026 17.9466 0.483398C10.586 0.483398 4.5954 6.47193 4.59236 13.8327" fill="url(#paint0_linear_1347_1769)"/>
<path d="M4.11612 13.8281C4.11536 16.2653 4.75209 18.6445 5.9626 20.7417L4 27.9074L11.3333 25.9846C13.3538 27.0863 15.6288 27.6671 17.9437 27.668H17.9496C25.5735 27.668 31.7797 21.4637 31.7829 13.8392C31.7842 10.144 30.3465 6.66932 27.7349 4.05544C25.123 1.44189 21.6501 0.00151938 17.9496 0C10.3245 0 4.11916 6.20341 4.11612 13.8281ZM8.48336 20.3805L8.20955 19.9459C7.05851 18.1157 6.45098 16.0007 6.45184 13.829C6.45423 7.49152 11.6119 2.3355 17.954 2.3355C21.0253 2.33681 23.9117 3.53408 26.0827 5.70636C28.2535 7.87885 29.4481 10.7668 29.4473 13.8383C29.4445 20.1757 24.2868 25.3324 17.9496 25.3324H17.9451C15.8817 25.3313 13.858 24.7772 12.0931 23.73L11.6731 23.4809L7.32136 24.6219L8.48336 20.3805Z" fill="url(#paint1_linear_1347_1769)"/>
<path d="M14.4915 8.04667C14.2326 7.47115 13.9601 7.45954 13.7138 7.44945C13.5122 7.44077 13.2817 7.44142 13.0514 7.44142C12.8209 7.44142 12.4464 7.52813 12.1298 7.87379C11.8129 8.21977 10.9199 9.05587 10.9199 10.7564C10.9199 12.4569 12.1585 14.1004 12.3312 14.3313C12.5041 14.5617 14.7224 18.163 18.2356 19.5485C21.1554 20.6999 21.7496 20.4709 22.3833 20.4131C23.0171 20.3556 24.4284 19.5772 24.7163 18.7701C25.0045 17.9631 25.0045 17.2714 24.9181 17.1268C24.8317 16.9828 24.6012 16.8963 24.2555 16.7235C23.9099 16.5508 22.2104 15.7144 21.8936 15.5991C21.5767 15.4838 21.3463 15.4263 21.1158 15.7724C20.8853 16.1179 20.2234 16.8963 20.0217 17.1268C19.8201 17.3579 19.6184 17.3866 19.2728 17.2137C18.9269 17.0403 17.8138 16.6758 16.4931 15.4984C15.4656 14.5822 14.7719 13.4508 14.5702 13.1047C14.3686 12.7591 14.5486 12.5718 14.722 12.3996C14.8773 12.2447 15.0677 11.996 15.2407 11.7942C15.4131 11.5924 15.4706 11.4483 15.5858 11.2178C15.7012 10.9871 15.6435 10.7852 15.5572 10.6124C15.4706 10.4395 14.7989 8.73007 14.4915 8.04667Z" fill="white"/>
</g>
<defs>
<filter id="filter0_d_1347_1769" x="0" y="0" width="35.7832" height="36" filterUnits="userSpaceOnUse" color-interpolation-filters="sRGB">
<feFlood flood-opacity="0" result="BackgroundImageFix"/>
<feColorMatrix in="SourceAlpha" type="matrix" values="0 0 0 0 0 0 0 0 0 0 0 0 0 0 0 0 0 0 127 0" result="hardAlpha"/>
<feOffset dy="4"/>
<feGaussianBlur stdDeviation="2"/>
<feComposite in2="hardAlpha" operator="out"/>
<feColorMatrix type="matrix" values="0 0 0 0 0 0 0 0 0 0 0 0 0 0 0 0 0 0 0.25 0"/>
<feBlend mode="normal" in2="BackgroundImageFix" result="effect1_dropShadow_1347_1769"/>
<feBlend mode="normal" in="SourceGraphic" in2="effect1_dropShadow_1347_1769" result="shape"/>
</filter>
<linearGradient id="paint0_linear_1347_1769" x1="1345.51" y1="2694.62" x2="1345.51" y2="0.483398" gradientUnits="userSpaceOnUse">
<stop stop-color="#1FAF38"/>
<stop offset="1" stop-color="#60D669"/>
</linearGradient>
<linearGradient id="paint1_linear_1347_1769" x1="1393.15" y1="2790.74" x2="1393.15" y2="0" gradientUnits="userSpaceOnUse">
<stop stop-color="#F9F9F9"/>
<stop offset="1" stop-color="white"/>
</linearGradient>
<clipPath id="clip0_1347_1769">
<rect width="27.7829" height="28" fill="white" transform="translate(4)"/>
</clipPath>
</defs>
</svg>
