<svg width="30" height="31" viewBox="0 0 30 31" fill="none" xmlns="http://www.w3.org/2000/svg">
<path d="M15 0C12.0333 0 9.13319 0.881711 6.66645 2.53363C4.19972 4.18556 2.27713 6.5335 1.14181 9.28055C0.00649923 12.0276 -0.290551 15.0504 0.288227 17.9666C0.867006 20.8829 2.29562 23.5616 4.3934 25.6641C6.49119 27.7666 9.16393 29.1984 12.0736 29.7785C14.9834 30.3586 17.9994 30.0609 20.7403 28.923C23.4811 27.7851 25.8238 25.8582 27.472 23.386C29.1203 20.9137 30 18.0071 30 15.0337C30 11.0465 28.4196 7.22263 25.6066 4.40327C22.7936 1.5839 18.9783 0 15 0ZM10.6382 22.9462H7.36579V12.381H10.6382V22.9462ZM9 10.939C8.6234 10.9405 8.25478 10.8302 7.94076 10.6218C7.62673 10.4134 7.38138 10.1165 7.23573 9.76837C7.09008 9.42028 7.05066 9.03673 7.12246 8.6662C7.19426 8.29567 7.37406 7.95479 7.63911 7.68664C7.90417 7.4185 8.2426 7.23514 8.61162 7.15972C8.98063 7.08431 9.36367 7.12024 9.71232 7.26297C10.061 7.40569 10.3596 7.64881 10.5704 7.96159C10.7812 8.27437 10.8948 8.64277 10.8967 9.02022C10.8978 9.52635 10.6988 10.0123 10.3434 10.3719C9.988 10.7314 9.50499 10.9353 9 10.939ZM22.8947 22.9462H19.6243V17.8031C19.6243 16.5766 19.6007 15.004 17.923 15.004C16.2454 15.004 15.9493 16.3373 15.9493 17.714V22.9462H12.6908V12.381H15.8309V13.8211H15.8763C16.3125 12.9903 17.3803 12.114 18.973 12.114C22.2849 12.114 22.8947 14.3018 22.8947 17.1424V22.9462Z" fill="black"/>
</svg>
