<svg width="66" height="66" viewBox="0 0 66 66" fill="none" xmlns="http://www.w3.org/2000/svg">
<rect x="0.460859" y="0.460859" width="65.0783" height="65.0783" rx="14.2866" fill="white" stroke="#CDCDCD" stroke-width="0.921718"/>
<g clip-path="url(#clip0_1067_4326)">
<path d="M32.7871 53.9738C36.1518 53.4957 39.1014 49.984 40.9575 44.7978C38.2744 44.1969 35.5363 43.8743 32.7871 43.8359V53.9738Z" fill="black"/>
<path d="M38.1634 53.1491C38.3623 53.0915 38.5605 53.0335 38.7571 52.9698C38.9229 52.9164 39.0865 52.8588 39.2501 52.8016C39.4436 52.7348 39.6363 52.6661 39.8283 52.5931C39.9919 52.5309 40.1539 52.4649 40.3163 52.3989C40.5037 52.3201 40.6907 52.2418 40.8758 52.1631C41.0374 52.0921 41.1979 52.0176 41.3584 51.9427C41.54 51.8571 41.7209 51.7699 41.9002 51.6793C42.0576 51.5991 42.2147 51.5173 42.3721 51.4332C42.5483 51.3387 42.7234 51.2424 42.8973 51.1433C43.0548 51.0542 43.2064 50.9647 43.3596 50.8726C43.5301 50.7678 43.6998 50.6629 43.8684 50.5581C44.0193 50.4621 44.1698 50.3646 44.3184 50.264C44.4843 50.1523 44.6478 50.0359 44.8106 49.9196C44.9569 49.8148 45.1025 49.7103 45.2453 49.6051C45.4027 49.4838 45.564 49.3582 45.7218 49.2323C45.8619 49.1206 46.0017 49.0096 46.1395 48.8948C46.2966 48.7642 46.4471 48.6291 46.5995 48.4939C46.7332 48.3753 46.8675 48.2578 46.9981 48.1361C47.1482 47.9959 47.2945 47.8508 47.4408 47.7068C47.5675 47.5816 47.6958 47.4584 47.8198 47.3301C47.8428 47.3063 47.8647 47.2806 47.8885 47.256C46.1733 46.3702 44.3668 45.6749 42.5003 45.1826C41.5297 48.2781 39.8022 51.0834 37.4746 53.3434C37.5383 53.3269 37.6021 53.3135 37.6658 53.2969C37.834 53.2497 37.9991 53.1979 38.1634 53.1491Z" fill="black"/>
<path d="M54.0007 32.8047H44.5721C44.5364 36.4861 44.0023 40.1457 42.9844 43.684C45.0601 44.2384 47.0632 45.0355 48.9523 46.0588C52.054 42.3205 53.8295 37.6595 54.0007 32.8047Z" fill="black"/>
<path d="M32.7871 31.2315H42.9994C42.9595 27.6802 42.4385 24.1508 41.4513 20.7393C38.6076 21.3878 35.7033 21.7341 32.7871 21.7725V31.2315Z" fill="black"/>
<path d="M32.7871 10.0625V20.2003C35.5363 20.1615 38.2744 19.8394 40.9575 19.2385C39.1014 14.0523 36.1518 10.5405 32.7871 10.0625Z" fill="black"/>
<path d="M32.7871 42.2637C35.7033 42.3024 38.6076 42.6488 41.4513 43.2973C42.4385 39.8858 42.9595 36.356 42.9994 32.8047H32.7871V42.2637Z" fill="black"/>
<path d="M48.9523 17.9775C47.0632 19.0008 45.0601 19.7979 42.9844 20.3524C44.0023 23.8906 44.5364 27.5502 44.5721 31.2316H54.0007C53.8291 26.3772 52.0536 21.7162 48.9523 17.9775Z" fill="black"/>
<path d="M47.8888 16.7847C47.8658 16.7613 47.8439 16.7359 47.8212 16.7117C47.6968 16.5835 47.5678 16.4598 47.4411 16.3351C47.2952 16.1911 47.1497 16.0455 46.9991 15.9058C46.869 15.7845 46.7342 15.6696 46.6006 15.5487C46.4482 15.4135 46.2957 15.2772 46.1391 15.1467C46.0031 15.0319 45.8638 14.9221 45.7255 14.8119C45.5681 14.6844 45.4068 14.5577 45.2448 14.436C45.1027 14.3288 44.9588 14.2252 44.814 14.1215C44.6497 14.0032 44.4846 13.8854 44.3171 13.7729C44.1701 13.6738 44.0207 13.577 43.8714 13.4822C43.7013 13.3728 43.5316 13.2656 43.3584 13.162C43.2067 13.071 43.0535 12.9811 42.8999 12.894C42.7241 12.7934 42.5478 12.6958 42.3701 12.6006C42.2126 12.5219 42.0556 12.4363 41.8982 12.3576C41.7173 12.2662 41.5349 12.1783 41.3479 12.0919C41.1905 12.017 41.0308 11.944 40.8688 11.873C40.6825 11.7904 40.4944 11.716 40.3066 11.6372C40.1446 11.5712 39.9833 11.5059 39.8198 11.4437C39.6289 11.3708 39.4354 11.3024 39.2419 11.2356C39.0783 11.178 38.9148 11.1208 38.7489 11.0671C38.5523 11.0033 38.3557 10.9453 38.1537 10.887C37.9902 10.839 37.8258 10.7902 37.6603 10.7464C37.597 10.7292 37.5325 10.7157 37.4688 10.6992C39.7963 12.9592 41.5234 15.7641 42.4945 18.86C44.3628 18.3678 46.1721 17.672 47.8888 16.7847Z" fill="black"/>
<path d="M10 31.2316H19.4286C19.4644 27.5502 19.9984 23.8906 21.016 20.3524C18.9406 19.7983 16.9375 19.0012 15.0484 17.9775C11.9467 21.7158 10.1712 26.3772 10 31.2316Z" fill="black"/>
<path d="M31.2153 53.9738V43.8359C28.4661 43.8747 25.7281 44.1969 23.0449 44.7978C24.9006 49.984 27.8506 53.4957 31.2153 53.9738Z" fill="black"/>
<path d="M31.2123 32.8047H21C21.0399 36.356 21.5606 39.8858 22.5481 43.2973C25.3918 42.6484 28.2957 42.3021 31.2123 42.2637V32.8047Z" fill="black"/>
<path d="M31.2153 10.0625C27.8506 10.5405 24.9006 14.0523 23.0449 19.2385C25.7281 19.8398 28.4661 20.1619 31.2153 20.2003V10.0625Z" fill="black"/>
<path d="M31.2123 21.7725C28.2961 21.7341 25.3918 21.3878 22.5481 20.7393C21.5606 24.1508 21.0399 27.6802 21 31.2315H31.2123V21.7725Z" fill="black"/>
<path d="M26.5229 10.6992C26.4592 10.7157 26.3954 10.7292 26.3317 10.7457C26.1651 10.7902 26.0007 10.8398 25.8349 10.8877C25.6375 10.9453 25.4417 11.0033 25.2436 11.0663C25.0765 11.1204 24.9122 11.178 24.7479 11.2352C24.5555 11.3032 24.3627 11.3708 24.1723 11.443C24.008 11.5059 23.8459 11.5712 23.6831 11.638C23.4961 11.7167 23.3088 11.7954 23.1241 11.8738C22.962 11.9448 22.8019 12.0193 22.6414 12.0942C22.4598 12.1798 22.279 12.2669 22.0996 12.3576C21.9422 12.4378 21.7848 12.52 21.6278 12.6037C21.4515 12.6981 21.2768 12.7949 21.1033 12.894C20.9458 12.9819 20.7911 13.0721 20.6394 13.1643C20.4686 13.2672 20.2996 13.3735 20.1314 13.4787C19.9802 13.5755 19.83 13.673 19.6814 13.7736C19.5156 13.8854 19.352 14.0017 19.1892 14.118C19.0429 14.2229 18.8974 14.3273 18.7542 14.4329C18.5933 14.5538 18.4397 14.6798 18.2777 14.8053C18.1379 14.9171 17.997 15.028 17.8603 15.1436C17.7029 15.2734 17.5535 15.4078 17.4018 15.5422C17.2674 15.662 17.1319 15.7783 17.0006 15.9023C16.8512 16.0417 16.7057 16.1865 16.5598 16.3301C16.4331 16.4552 16.3041 16.5789 16.1797 16.7075C16.157 16.7313 16.1351 16.7574 16.1113 16.7816C17.8261 17.6678 19.6331 18.3632 21.4995 18.8554C22.4702 15.7614 24.1965 12.9581 26.5229 10.6992Z" fill="black"/>
<path d="M16.5584 47.7002C16.7047 47.8442 16.8502 47.9897 17.0003 48.1298C17.1309 48.2508 17.2652 48.3656 17.3992 48.4865C17.5517 48.6221 17.7041 48.758 17.8608 48.8885C17.9967 49.0026 18.1353 49.1128 18.2743 49.2234C18.4317 49.3508 18.5888 49.4775 18.7554 49.6C18.8971 49.7064 19.0411 49.8093 19.1851 49.9149C19.3494 50.0328 19.5153 50.1506 19.6827 50.2639C19.8297 50.363 19.9791 50.4597 20.1285 50.555C20.2986 50.664 20.4683 50.7711 20.6414 50.8748C20.7931 50.9662 20.9463 51.0556 21.0999 51.1432C21.2758 51.2438 21.452 51.3413 21.6298 51.4362C21.7868 51.5149 21.9442 51.6005 22.1017 51.6792C22.2825 51.7706 22.4649 51.8585 22.6519 51.9453C22.8093 52.0194 22.969 52.0924 23.1311 52.1638C23.3173 52.2463 23.5051 52.3208 23.6932 52.3995C23.8552 52.4656 24.0165 52.5308 24.1801 52.593C24.3709 52.6664 24.5644 52.7347 24.7579 52.8015C24.9215 52.8587 25.0851 52.9163 25.2509 52.9697C25.4475 53.0334 25.6441 53.0918 25.8461 53.1498C26.0097 53.1978 26.174 53.2465 26.3391 53.2907C26.4028 53.308 26.4673 53.3214 26.5311 53.3379C24.2035 51.0775 22.4764 48.2727 21.5054 45.1768C19.6389 45.6694 17.832 46.3647 16.1172 47.2513C16.1402 47.2747 16.1621 47.3001 16.1851 47.3243C16.303 47.4518 16.4301 47.5754 16.5584 47.7002Z" fill="black"/>
<path d="M15.0484 46.0588C16.9375 45.0355 18.9406 44.2384 21.016 43.684C19.9984 40.1457 19.4644 36.4861 19.4286 32.8047H10C10.1716 37.6592 11.9467 42.3201 15.0484 46.0588Z" fill="black"/>
</g>
<defs>
<clipPath id="clip0_1067_4326">
<rect width="44" height="44" fill="white" transform="translate(10 10)"/>
</clipPath>
</defs>
</svg>
