<svg height="512" viewBox="0 0 512 512" width="512" xmlns="http://www.w3.org/2000/svg"><g id="Layer_27" data-name="Layer 27"><path d="m125.493 295a8 8 0 0 0 5.382-2.078l31.274-28.431 38.543 28.909a8 8 0 0 0 10.183-.476l74.618-67.834v21.91h16v-40a8 8 0 0 0 -8-8h-40v16h19.3l-67.793 61.633-30.8-23.1 31.289-28.445v21.912h16v-40a8 8 0 0 0 -8-8h-40v16h19.3l-31.63 28.756-78.866-59.156-9.6 12.8 76.422 57.317-24.3 22.09-98.77-68.383-9.109 13.156 104 72a7.994 7.994 0 0 0 4.557 1.42z"/><path d="m405.493 399h-144v-16h112a8 8 0 0 0 0-16h-112v-16h24v-8a8.008 8.008 0 0 0 -8-8h-42.746a24.162 24.162 0 0 0 -16.969 7.031l-1.684 1.68a79 79 0 0 1 -56.238 23.289h-130.363v96h133.664a120.178 120.178 0 0 1 53.468 12.617 32.144 32.144 0 0 0 14.309 3.383h110.559a8 8 0 0 0 0-16h-80v-16h112a8 8 0 0 0 0-16h-112v-16h144a8 8 0 0 0 0-16z"/><path d="m413.493 54.852a104.788 104.788 0 0 1 -80 47.843v75.071a40.042 40.042 0 0 0 13.09 29.593l66.91 60.829 66.907-60.829a40.034 40.034 0 0 0 13.094-29.593v-75.066a104.787 104.787 0 0 1 -80.001-47.848zm-8 116.148a28 28 0 0 1 -56 0v-44h16v44a12 12 0 0 0 24 0v-44h16zm47.492 22.809a8 8 0 0 1 -14.985 0l-24.507-66.809h16l16 41.215 16-41.215h16z"/></g></svg>