<svg id="Layer_25" viewBox="0 0 72 72" xmlns="http://www.w3.org/2000/svg"><path d="m31 46v-.93994c0-.43457.27832-.81396.69336-.94434 1.05957-.33301 2.09668-.76416 3.08301-1.28076.38867-.20312.85547-.13135 1.16309.17529l.66699.66797c1.16992 1.16943 3.07324 1.16797 4.24316-.00049l2.82812-2.82861c1.16992-1.16943 1.16992-3.07324 0-4.24268l-.66699-.66748c-.30762-.30713-.37793-.77393-.1748-1.16211.51562-.98682.94629-2.02441 1.28027-3.08398.12988-.41455.50977-.69287.94434-.69287h.93945c1.6543 0 3-1.3457 3-3v-4c0-1.6543-1.3457-3-3-3h-.93945c-.43457 0-.81445-.27832-.94434-.69385-.33398-1.05859-.76465-2.09619-1.28125-3.0835-.20215-.3877-.13184-.85449.17578-1.16211l.66699-.66699c1.16992-1.16943 1.16992-3.07324 0-4.24268l-2.82812-2.8291c-1.16992-1.16992-3.07324-1.16748-4.24316.00049l-.66699.66699c-.30762.30713-.77344.37744-1.16211.17627-.9873-.51709-2.02441-.94824-3.08398-1.28125-.41504-.13037-.69336-.50977-.69336-.94434v-.93994c0-1.6543-1.3457-3-3-3h-4c-1.6543 0-3 1.3457-3 3v.93994c0 .43457-.27832.81396-.69336.94434-1.05957.33301-2.09668.76416-3.08301 1.28076-.38867.20312-.85547.13135-1.16309-.17529l-.66699-.66797c-1.1709-1.16992-3.07422-1.16748-4.24316.00049l-2.82812 2.82861c-1.16992 1.16943-1.16992 3.07324 0 4.24268l.66699.66748c.30762.30713.37793.77393.1748 1.16211-.51562.98682-.94629 2.02441-1.28027 3.08398-.12988.41455-.50977.69287-.94434.69287h-.93945c-1.6543 0-3 1.3457-3 3v4c0 1.6543 1.3457 3 3 3h.93945c.43457 0 .81445.27832.94434.69385.33398 1.05859.76465 2.09619 1.28125 3.0835.20215.3877.13184.85449-.17578 1.16211l-.66699.66699c-1.16992 1.16943-1.16992 3.07324 0 4.24268l2.82812 2.8291c1.1709 1.16943 3.07422 1.16797 4.24316-.00049l.66699-.66699c.30762-.30713.77344-.37891 1.16211-.17627.9873.51709 2.02441.94824 3.08398 1.28125.41504.13037.69336.50977.69336.94434v.93994c0 1.6543 1.3457 3 3 3h4c1.6543 0 3-1.3457 3-3zm-8 0v-.93994c0-1.31201-.84082-2.4585-2.09375-2.85254-.94629-.29736-1.87305-.68262-2.75684-1.14502-.44238-.23145-.91895-.34375-1.39258-.34375-.77246 0-1.53418.30127-2.11035.87744l-.66699.66699c-.38965.38965-1.02344.39111-1.41504.00049l-2.82812-2.82861c-.38965-.39014-.38965-1.02441 0-1.41455l.66699-.6665c.92969-.92871 1.14355-2.33691.53417-3.50293-.4619-.8833-.84764-1.81152-1.1455-2.75781-.39355-1.25195-1.54004-2.09326-2.85254-2.09326h-.93945c-.55176 0-1-.44873-1-1v-4c0-.55127.44824-1 1-1h.93945c1.3125 0 2.45898-.84131 2.85254-2.09229.29785-.94727.68359-1.87549 1.14453-2.7583.61035-1.1665.39648-2.57471-.5332-3.50293l-.66699-.66699c-.38965-.39014-.38965-1.02441 0-1.41455l2.82812-2.82812c.38965-.39014 1.02344-.39062 1.41504-.00049l.66699.66797c.93066.92871 2.33887 1.14258 3.50391.53271.88281-.46191 1.80957-.84717 2.75586-1.14453 1.25293-.39404 2.09375-1.54053 2.09375-2.85254v-.93994c0-.55127.44824-1 1-1h4c.55176 0 1 .44873 1 1v.93994c0 1.31201.84082 2.4585 2.09375 2.85254.94629.29736 1.87305.68262 2.75684 1.14502 1.16406.6084 2.57324.396 3.50293-.53369l.66699-.66699c.38965-.39014 1.02344-.39062 1.41504-.00049l2.82812 2.82861c.38965.39014.38965 1.02441 0 1.41455l-.66699.6665c-.92969.92871-1.14355 2.33691-.53419 3.50293.46193.8833.84767 1.81152 1.14552 2.75781.39355 1.25195 1.54004 2.09326 2.85254 2.09326h.93945c.55176 0 1 .44873 1 1v4c0 .55127-.44824 1-1 1h-.93945c-1.3125 0-2.45898.84131-2.85254 2.09229-.29785.94727-.68359 1.87549-1.14453 2.7583-.61035 1.1665-.39648 2.57471.5332 3.50293l.66699.66699c.38965.39014.38965 1.02441 0 1.41455l-2.82812 2.82812c-.38965.38965-1.02344.39111-1.41504.00049l-.66699-.66797c-.92969-.92822-2.33789-1.14209-3.50391-.53271-.88281.46191-1.80957.84717-2.75586 1.14453-1.25293.39404-2.09375 1.54053-2.09375 2.85254v.93994c0 .55127-.44824 1-1 1h-4c-.55176 0-1-.44873-1-1z"/><path d="m32 34.17139v-2.26172c2.83313-.47833 5-2.94244 5-5.90967s-2.16687-5.43134-5-5.90967v-2.26172c0-2.11133-1.71777-3.82861-3.82812-3.82861-1.02344 0-1.98439.39844-2.70703 1.12158l-6.34375 6.34326c-.34082.33984-.81152.53516-1.29297.53516h-2c-2.11035 0-3.82812 1.71729-3.82812 3.82861v.34277c0 2.11133 1.71777 3.82861 3.82812 3.82861h2c.48145 0 .95215.19531 1.29297.53564l6.34375 6.34229c.72264.72363 1.68359 1.12207 2.70703 1.12207 2.11035 0 3.82812-1.71729 3.82812-3.82861zm3-8.17139c0 1.85834-1.27948 3.41083-3 3.85803v-7.71606c1.72052.4472 3 1.99969 3 3.85803zm-14.46484 3.12207c-.72267-.72363-1.68359-1.12207-2.70703-1.12207h-2c-1.00781 0-1.82812-.82031-1.82812-1.82861v-.34277c0-1.0083.82031-1.82861 1.82812-1.82861h2c1.02344 0 1.98436-.39844 2.70703-1.12158l6.34375-6.34277v-.00049c.34082-.33984.81152-.53516 1.29297-.53516 1.00781 0 1.82812.82031 1.82812 1.82861v16.34277c0 1.0083-.82031 1.82861-1.82812 1.82861-.48145 0-.95215-.19531-1.29297-.53564z"/><path d="m66 41h-.94043c-.43652 0-.81641-.27686-.94531-.68994-.32227-1.02686-.75195-2.0625-1.2793-3.08545-.20312-.38721-.13184-.8584.16699-1.16211l.6748-.66504c.56641-.56641.87793-1.31982.87793-2.12256 0-.80225-.31152-1.55566-.87793-2.12207l-2.83008-2.83008c-1.13086-1.13184-3.10547-1.13965-4.25.00586l-.64746.65869c-.31445.31055-.78613.38135-1.18066.17383-1.01367-.52295-2.04883-.95215-3.08008-1.27588-.07324-.02295-.15039-.05762-.21582-.09766-.47168-.29004-1.08691-.14111-1.375.33008-.28906.4707-.14062 1.08643.33008 1.375.20801.12744.43066.229.66211.30127.9209.28906 1.84961.67383 2.75488 1.14111 1.16016.60889 2.56934.3999 3.51855-.53369l.65332-.66406c.37695-.37793 1.03906-.37744 1.41602-.00049l2.83008 2.83008c.18848.18848.29199.43994.29199.70801s-.10352.51953-.28711.70264l-.68066.67139c-.92188.9375-1.13184 2.34668-.52539 3.49902.4707.91455.85645 1.84375 1.14453 2.76074.3916 1.25098 1.53809 2.09131 2.85352 2.09131h.94043c.55176 0 1 .44873 1 1v4c0 .55127-.44824 1-1 1h-.94043c-1.31543 0-2.46191.84033-2.85352 2.09033-.28809.91797-.67383 1.84717-1.14062 2.75439-.61035 1.15918-.40039 2.56836.53223 3.51758l.66504.65527c.18848.18799.29199.43945.29199.70752s-.10352.51953-.29199.70801l-2.83105 2.83008c-.375.37549-1.04395.37109-1.40918.00537l-.6709-.68164c-.93652-.92334-2.34766-1.13086-3.50098-.52539-.91113.4707-1.83984.85547-2.75977 1.14404-1.25098.3916-2.09082 1.53857-2.09082 2.85449v.93994c0 .55127-.44824 1-1 1h-4c-.55176 0-1-.44873-1-1v-.93994c0-1.31592-.83984-2.46289-2.08984-2.854-.9209-.28906-1.84961-.67383-2.75488-1.14111-1.16016-.60986-2.56934-.40088-3.51855.53369l-.65332.66406c-.37793.37695-1.04004.37598-1.41602 0l-2.83008-2.82959c-.18848-.18848-.29199-.43994-.29199-.70801s.10352-.51953.28711-.70264l.68066-.67188c.92188-.9375 1.13184-2.34668.52539-3.49854-.4707-.91455-.85645-1.84375-1.14355-2.75879-.07324-.23438-.1748-.45898-.30371-.66797-.29102-.46973-.90723-.61768-1.37598-.32617-.4707.28955-.61621.90576-.32715 1.37598.04102.06543.07422.13867.09766.21484.32227 1.02686.75195 2.0625 1.2793 3.08545.20312.38672.13184.8584-.16699 1.16211l-.6748.66504c-.56641.56641-.87793 1.31982-.87793 2.12256 0 .80225.31152 1.55566.87793 2.12207l2.8291 2.8291c1.13086 1.13232 3.10449 1.13965 4.25098-.00537l.64746-.6582c.31445-.31006.78809-.37988 1.18066-.17383 1.01367.52295 2.04883.95215 3.08008 1.27588.41211.12842.68848.50879.68848.94531v.93994c0 1.6543 1.3457 3 3 3h4c1.6543 0 3-1.3457 3-3v-.93994c0-.43652.27637-.81689.68945-.9458 1.03027-.32324 2.06543-.75244 3.08496-1.27881.3877-.20312.85938-.13232 1.16307.16553l.66505.67578c1.13379 1.13428 3.11426 1.13232 4.24414 0l2.83008-2.82959c.56641-.56641.87793-1.31982.87793-2.12207 0-.80273-.31152-1.55615-.88281-2.12744l-.65918-.64844c-.30957-.31543-.38086-.78711-.17383-1.18115.52344-1.01562.95312-2.05127 1.27539-3.0791.12891-.41211.50879-.68896.94531-.68896h.94043c1.6543 0 3-1.3457 3-3v-4c0-1.6543-1.3457-3-3-3z"/><path d="m44.86523 34.05322c-.5498.04688-.95801.53125-.91113 1.08154.0459.55029.51562.95117 1.08105.91162 1.9502-.16455 3.89258.19629 5.5957 1.08838l-13.49609 13.49658c-.74512-1.42285-1.13477-3.00293-1.13477-4.63135 0-.32129.01855-.64258.0459-.96338.04785-.55029-.35938-1.03516-.91016-1.08252-.5625-.05664-1.03418.36035-1.08203.90967-.0332.37842-.05371.75732-.05371 1.13623 0 2.44482.73242 4.79883 2.11719 6.80762.16895.24463.43652.40137.73242.42871.03027.00244.06055.00391.09082.00391.26367 0 .51855-.10449.70703-.29297l15.2998-15.30029c.20996-.20996.31543-.50244.28906-.79785-.02734-.2959-.18457-.56396-.42871-.73242-2.31934-1.59863-5.12013-2.30176-7.94238-2.06348z"/><path d="m38.76367 55.15088c.02734.2959.18457.56445.42871.73291 2.00977 1.38428 4.36426 2.11621 6.80762 2.11621 6.61719 0 12-5.3833 12-12 0-2.44531-.73242-4.7998-2.11719-6.80811-.16895-.24414-.43652-.40088-.73242-.42822-.29492-.02441-.5879.0791-.79785.28906l-15.2998 15.30029c-.20996.20996-.31543.50244-.28906.79785zm16.10156-13.78223c.74512 1.42285 1.13477 3.00244 1.13477 4.63135 0 5.51416-4.48633 10-10 10-1.62793 0-3.20801-.38965-4.63086-1.13477z"/></svg>