<svg id="Layer_3" enable-background="new 0 0 64 64" height="512" viewBox="0 0 64 64" width="512" xmlns="http://www.w3.org/2000/svg"><g><path d="m62.832 48.445-1.832-2.748v-43.697c0-.552-.447-1-1-1h-58c-.553 0-1 .448-1 1v48c0 .552.447 1 1 1h39.18l.839 4.196c.021.105.059.207.112.3l4 7c.179.312.511.504.869.504h12c.4 0 .762-.238.919-.606l3-7c.054-.124.081-.259.081-.394v-6c0-.197-.059-.391-.168-.555zm-21.135.555h-38.697v-46h56v42h-.465l-1.703-2.555c-.186-.278-.498-.445-.832-.445h-1.465l-1.209-1.813c2.339-2.086 3.674-5.014 3.674-8.187 0-6.065-4.935-11-11-11s-11 4.935-11 11c0 4.934 3.319 9.255 8 10.58v2.42c0 .107.018.214.052.316l.758 2.275zm1.303-15v1.996c-1.233-.929-2-2.4-2-3.996 0-2.757 2.243-5 5-5s5 2.243 5 5c0 1.599-.766 3.07-2 3.998v-1.998c0-1.654-1.346-3-3-3s-3 1.346-3 3zm6 4.305c2.414-1.15 4-3.589 4-6.305 0-3.86-3.141-7-7-7s-7 3.14-7 7c0 2.712 1.588 5.154 4 6.304v2.175c-3.538-1.253-6-4.637-6-8.479 0-4.962 4.037-9 9-9s9 4.038 9 9c0 2.753-1.228 5.281-3.363 7h-1.637c-.334 0-.646.167-.832.445l-.168.252zm12 16.49-2.659 6.205h-10.761l-3.631-6.355-.837-4.184 1.354-.902.586 1.758 1.896-.633-1.948-5.846v-10.838c0-.551.448-1 1-1s1 .449 1 1v9c0 .44.288.83.71.957.421.129.878-.036 1.122-.402l1.703-2.555h.93l1.703 2.555c.186.278.498.445.832.445h1.465l1.703 2.555c.186.278.498.445.832.445h1.465l1.535 2.303z"/><path d="m32 5h-26c-.553 0-1 .448-1 1v40c0 .552.447 1 1 1h26c.553 0 1-.448 1-1v-40c0-.552-.447-1-1-1zm-1 40h-24v-38h24z"/><path d="m36 11h4c.553 0 1-.448 1-1v-4c0-.552-.447-1-1-1h-4c-.553 0-1 .448-1 1v4c0 .552.447 1 1 1zm1-4h2v2h-2z"/><path d="m44 11h4c.553 0 1-.448 1-1v-4c0-.552-.447-1-1-1h-4c-.553 0-1 .448-1 1v4c0 .552.447 1 1 1zm1-4h2v2h-2z"/><path d="m52 11h4c.553 0 1-.448 1-1v-4c0-.552-.447-1-1-1h-4c-.553 0-1 .448-1 1v4c0 .552.447 1 1 1zm1-4h2v2h-2z"/><path d="m36 19h4c.553 0 1-.448 1-1v-4c0-.552-.447-1-1-1h-4c-.553 0-1 .448-1 1v4c0 .552.447 1 1 1zm1-4h2v2h-2z"/><path d="m44 19h4c.553 0 1-.448 1-1v-4c0-.552-.447-1-1-1h-4c-.553 0-1 .448-1 1v4c0 .552.447 1 1 1zm1-4h2v2h-2z"/><path d="m52 19h4c.553 0 1-.448 1-1v-4c0-.552-.447-1-1-1h-4c-.553 0-1 .448-1 1v4c0 .552.447 1 1 1zm1-4h2v2h-2z"/><path d="m10 21h18c.553 0 1-.448 1-1v-10c0-.552-.447-1-1-1h-18c-.553 0-1 .448-1 1v10c0 .552.447 1 1 1zm1-10h16v8h-16z"/><path d="m19 43c5.514 0 10-4.486 10-10s-4.486-10-10-10-10 4.486-10 10 4.486 10 10 10zm0-18c4.411 0 8 3.589 8 8s-3.589 8-8 8-8-3.589-8-8 3.589-8 8-8z"/><path d="m17 37c.256 0 .512-.098.707-.293l6-6-1.414-1.414-5.293 5.293-1.293-1.293-1.414 1.414 2 2c.195.195.451.293.707.293z"/></g></svg>