<svg id="line" viewBox="0 0 64 64" xmlns="http://www.w3.org/2000/svg"><path d="m30.19824 35.49658c1.50879 0 2.73633-1.22754 2.73633-2.73633v-3.98926c0-.55225-.44727-1-1-1s-1 .44775-1 1v3.98926c0 .40625-.33008.73633-.73633.73633s-.7373-.33008-.7373-.73633v-3.98926c0-.55225-.44727-1-1-1s-1 .44775-1 1v3.98926c0 1.50879 1.22754 2.73633 2.7373 2.73633z"/><path d="m35.43652 34.80762c.25054.90791 1.63305.92536 1.90332.02094 0 .00005 1.91699-5.7226 1.91699-5.7226.39641-1.25192-1.45451-1.87434-1.8965-.6357.00001-.00004-.93358 2.78707-.93358 2.78707l-.86133-2.76904c-.40921-1.24764-2.2795-.6697-1.91014.59379-.00001-.00004 1.78124 5.72554 1.78124 5.72554z"/><path d="m33.38477 41.03223c5.17871 0 9.3916-4.21289 9.3916-9.39111-.51581-12.45807-18.26807-12.45546-18.78224.00007.00002 5.17815 4.21291 9.39104 9.39064 9.39104zm0-16.78223c4.07617 0 7.3916 3.31543 7.3916 7.39111-.38739 9.79776-14.39608 9.79602-14.78224-.00008.00001-4.07561 3.31544-7.39104 7.39064-7.39104z"/><path d="m35.61328 5.02734c-1.7013-.1779-3.29245 1.31505-3.25485 3.02299-.00003 1.582 1.19138 2.87399 2.77048 3.00582 25.64607 3.02655 25.41108 39.40039-.42989 41.83693-11.39034.97838-22.00368-8.56228-22.29457-19.93769-.00015.00017 1.84653-.00569 1.84653-.00569.78364.02277 1.28429-.94493.81735-1.57228.00003.00001-4.35642-6.24071-4.35642-6.24071-.35067-.53341-1.18837-.56747-1.58691-.07029 0-.00002-5.27344 6.29099-5.27344 6.29099-.54522.61449-.05995 1.66974.76665 1.64256-.00197.00147 1.7315-.02705 1.7353-.02635.27747 14.09659 12.86235 26.32447 26.98361 26.00952 34.51284-1.18741 36.40735-49.79428 2.27617-53.95581zm22.71973 28.52979c-1.20754 20.96195-26.93313 31.10097-42.10949 16.63933-5.08778-4.78142-7.88954-11.25847-7.88954-18.23797.01204-.54363-.47361-1.01917-1.01563-.99999 0 0-.52929.00829-.52929.00829l3.03027-3.61475 2.51562 3.60352-.95605.00293c-.55078.00146-.99707.44873-.99707 1 0 6.31494 2.64062 12.41846 7.24414 16.74512 13.93605 13.27909 37.55818 3.96395 38.66296-15.28104.76966-12.40108-8.64831-23.32882-20.99401-24.35958-.53418-.04443-.93652-.47998-.93652-1.0127-.01426-.56896.52089-1.09582 1.09083-1.02977 13.45702 1.11278 23.72265 13.01708 22.88378 26.53661z"/><path d="m19.22559 34.40381c1.64355 1.21729 2.47949 3.22705 2.18164 5.24512l-.48145 3.26367c-.0459.31299.05859.62891.28223.85254.22266.22363.54102.33203.85156.28271l3.27637-.47998c2.03809-.29541 4.05078.5376 5.27246 2.17529l1.97461 2.64648c.37529.52796 1.22825.53132 1.60351-.00003 0 .00003 1.97461-2.64597 1.97461-2.64597 1.22363-1.63965 3.24609-2.4707 5.27344-2.17529 0 0 3.27539.47998 3.27539.47998.31445.04883.62891-.05859.85156-.28271.22363-.22363.32812-.53955.28223-.85254 0 0-.48145-3.26416-.48145-3.26416-.29785-2.01758.53809-4.02734 2.18164-5.24512 0 0 2.65723-1.9668 2.65723-1.9668.53232-.37362.5358-1.23349-.00003-1.60742.00003 0-2.65622-1.96729-2.65622-1.96729-1.64355-1.2168-2.47949-3.22705-2.18262-5.24512l.48242-3.26367c.0459-.3125-.05859-.62891-.28125-.85254-.22363-.22363-.53906-.32861-.85254-.28271l-3.27734.47998c-2.03418.29541-4.0498-.53711-5.27148-2.17529l-1.97559-2.646c-.37891-.50586-1.22461-.50586-1.60352 0 0 0-1.97461 2.646-1.97461 2.646-1.22168 1.63916-3.23438 2.47266-5.27246 2.17529 0 0-3.27637-.47998-3.27637-.47998-.63638-.10989-1.24758.49383-1.13377 1.13527-.00002-.00002.4824 3.26316.4824 3.26316.29688 2.01855-.53906 4.02881-2.18262 5.24561l-2.65625 1.96729c-.53226.37405-.53587 1.23373.00003 1.60742-.00003 0 2.65622 1.9668 2.65622 1.9668zm1.18945-3.93408c2.23828-1.65674 3.37695-4.39453 2.97168-7.14453l-.28613-1.93311s1.94629.28467 1.94629.28467c2.75879.40479 5.50195-.72949 7.16504-2.95752l1.17285-1.57227 1.17383 1.57227c1.66309 2.22803 4.4082 3.36133 7.16406 2.95752l1.94727-.28467s-.28613 1.93359-.28613 1.93359c-.40527 2.74951.7334 5.4873 2.97168 7.14404l1.57031 1.16309-1.57227 1.16357c-2.2373 1.65869-3.37598 4.396-2.96973 7.14453l.28516 1.93359-1.94531-.28467c-2.75488-.40381-5.50195.72949-7.16602 2.95752 0 0-1.17285 1.57227-1.17285 1.57227l-1.17285-1.57275c-1.44043-1.92969-3.69238-3.03809-6.06152-3.03809-.75771.00709-2.28865.2485-3.04988.3653.00008-.00006.28523-1.93317.28523-1.93317.40625-2.74951-.73242-5.4873-2.9707-7.14453l-1.57031-1.16309 1.57031-1.16357z"/></svg>