<?xml version="1.0" encoding="iso-8859-1"?>
<!-- Generator: Adobe Illustrator 21.0.0, SVG Export Plug-In . SVG Version: 6.00 Build 0)  -->
<svg version="1.1" id="Capa_1" xmlns="http://www.w3.org/2000/svg" xmlns:xlink="http://www.w3.org/1999/xlink" x="0px" y="0px"
	 viewBox="0 0 512 512" style="enable-background:new 0 0 512 512;" xml:space="preserve">
<g>
	<g>
		<g>
			<path d="M511.283,237.909c-0.305-3.38-2.583-6.258-5.803-7.33l-30.524-10.172c-2.384-14.705-6.249-29.132-11.537-43.059
				l21.333-24.081c2.251-2.539,2.784-6.171,1.357-9.25c-2.287-4.915-5.035-10.146-8.431-16.026c-3.499-6.042-6.562-10.906-9.66-15.3
				c-1.962-2.761-5.37-4.1-8.687-3.413l-31.65,6.477c-9.405-11.495-19.933-22.024-31.428-31.428l6.519-31.676
				c0.687-3.316-0.652-6.725-3.413-8.687c-4.446-3.098-9.31-6.161-15.36-9.668c-5.862-3.413-11.093-6.135-16.017-8.422
				c-3.079-1.427-6.711-0.895-9.25,1.357l-24.081,21.333c-13.927-5.288-28.354-9.153-43.059-11.537L281.421,6.519
				c-1.072-3.22-3.95-5.498-7.33-5.803C268.749,0.23,262.827,0,256,0s-12.749,0.23-18.091,0.717c-3.38,0.305-6.258,2.583-7.33,5.803
				l-10.172,30.524c-14.705,2.384-29.132,6.249-43.059,11.537l-24.081-21.333c-2.539-2.251-6.171-2.784-9.25-1.357
				c-4.915,2.287-10.146,5.035-16.026,8.431c-6.042,3.499-10.906,6.562-15.3,9.66c-2.761,1.962-4.1,5.371-3.413,8.687l6.477,31.65
				c-11.495,9.405-22.024,19.933-31.428,31.428l-31.676-6.519c-3.316-0.687-6.725,0.652-8.687,3.413
				c-3.098,4.395-6.161,9.259-9.668,15.309c-3.413,5.871-6.135,11.093-8.422,16.017c-1.427,3.079-0.895,6.711,1.357,9.25
				l21.333,24.081c-5.288,13.927-9.153,28.354-11.537,43.059L6.519,230.579c-3.22,1.072-5.498,3.95-5.803,7.33
				C0.23,243.251,0,249.173,0,256s0.23,12.749,0.717,18.091c0.305,3.38,2.583,6.258,5.803,7.33l30.524,10.172
				c2.384,14.705,6.249,29.132,11.537,43.059l-21.333,24.081c-2.251,2.539-2.784,6.171-1.357,9.25
				c2.287,4.915,5.035,10.155,8.431,16.026c3.499,6.042,6.562,10.906,9.66,15.3c1.962,2.761,5.371,4.1,8.687,3.413l31.65-6.477
				c9.405,11.495,19.933,22.024,31.428,31.428l-6.519,31.676c-0.687,3.316,0.652,6.725,3.413,8.687
				c4.395,3.098,9.259,6.161,15.309,9.668c5.871,3.413,11.093,6.135,16.017,8.422c3.079,1.427,6.711,0.895,9.25-1.357l24.081-21.333
				c13.928,5.285,28.354,9.148,43.059,11.529l10.172,30.532c1.072,3.22,3.95,5.498,7.33,5.803c5.393,0.469,11.315,0.7,18.142,0.7
				s12.749-0.23,18.091-0.717c3.38-0.305,6.258-2.583,7.33-5.803l10.172-30.532c14.705-2.381,29.132-6.243,43.059-11.529
				l24.081,21.333c2.539,2.251,6.171,2.784,9.25,1.357c4.915-2.287,10.155-5.035,16.026-8.431c6.042-3.499,10.906-6.562,15.3-9.66
				c2.761-1.962,4.1-5.37,3.413-8.687l-6.477-31.65c11.495-9.405,22.024-19.933,31.428-31.428l31.65,6.477
				c3.318,0.703,6.735-0.64,8.687-3.413c3.098-4.395,6.161-9.259,9.668-15.309c3.413-5.862,6.135-11.093,8.422-16.017
				c1.427-3.079,0.895-6.711-1.357-9.25l-21.333-24.081c5.288-13.927,9.153-28.354,11.537-43.059l30.524-10.172
				c3.22-1.072,5.498-3.95,5.803-7.33C511.77,268.749,512,262.827,512,256S511.77,243.251,511.283,237.909z M494.677,267.034
				l-30.089,10.027c-3.076,1.031-5.301,3.716-5.743,6.929c-2.323,16.879-6.752,33.4-13.184,49.178
				c-1.228,3.007-0.643,6.451,1.51,8.883l21.043,23.731c-1.545,3.029-3.294,6.229-5.282,9.677c-1.988,3.448-3.934,6.63-5.751,9.387
				l-31.181-6.383c-3.178-0.647-6.448,0.563-8.44,3.123c-10.456,13.409-22.525,25.478-35.934,35.934
				c-2.56,1.991-3.771,5.261-3.123,8.439l6.383,31.181c-2.799,1.818-5.879,3.695-9.387,5.743c-3.507,2.048-6.656,3.746-9.685,5.291
				l-23.765-21.026c-2.432-2.153-5.876-2.739-8.883-1.51c-15.782,6.426-32.306,10.855-49.186,13.184
				c-3.21,0.445-5.891,2.67-6.921,5.743l-10.027,30.114c-6.733,0.35-15.36,0.35-22.067,0l-10.027-30.089
				c-1.029-3.073-3.71-5.298-6.921-5.743c-16.88-2.329-33.404-6.758-49.186-13.184c-3.007-1.228-6.451-0.643-8.883,1.51
				l-23.731,21.043c-3.029-1.545-6.229-3.294-9.677-5.282s-6.63-3.934-9.429-5.751l6.383-31.181c0.647-3.178-0.563-6.448-3.123-8.44
				c-13.409-10.456-25.478-22.525-35.934-35.934c-1.991-2.56-5.261-3.771-8.439-3.123l-31.181,6.349
				c-1.818-2.799-3.695-5.879-5.743-9.387c-2.048-3.507-3.746-6.656-5.291-9.685l21.069-23.731c2.153-2.432,2.739-5.876,1.51-8.883
				c-6.441-15.776-10.879-32.297-13.21-49.178c-0.442-3.213-2.667-5.899-5.743-6.929l-30.089-10.027
				c-0.171-3.354-0.256-7.014-0.256-11.034c0-4.019,0.085-7.68,0.256-11.034l30.089-10.027c3.076-1.03,5.301-3.716,5.743-6.929
				c2.323-16.879,6.752-33.4,13.184-49.178c1.235-3.002,0.66-6.446-1.485-8.883l-21.069-23.731c1.544-3.029,3.294-6.229,5.282-9.677
				c1.988-3.447,3.934-6.63,5.751-9.429l31.181,6.383c3.178,0.647,6.448-0.563,8.439-3.123
				c10.456-13.409,22.525-25.478,35.934-35.934c2.56-1.991,3.771-5.261,3.123-8.439l-6.349-31.181
				c2.799-1.818,5.879-3.695,9.387-5.743c3.507-2.048,6.656-3.746,9.685-5.291l23.731,21.069c2.432,2.153,5.876,2.739,8.883,1.51
				c15.776-6.441,32.297-10.879,49.178-13.21c3.213-0.442,5.899-2.667,6.929-5.743l10.027-30.089c6.733-0.35,15.36-0.35,22.067,0
				l10.027,30.089c1.031,3.076,3.716,5.301,6.929,5.743c16.879,2.323,33.4,6.752,49.178,13.184c3.002,1.235,6.446,0.66,8.883-1.485
				l23.731-21.043c3.029,1.545,6.229,3.294,9.677,5.282c3.448,1.988,6.63,3.934,9.387,5.751l-6.383,31.181
				c-0.647,3.178,0.563,6.448,3.123,8.439c13.409,10.456,25.478,22.525,35.934,35.934c1.991,2.56,5.261,3.771,8.439,3.123
				l31.181-6.383c1.818,2.799,3.695,5.88,5.743,9.387c2.048,3.507,3.746,6.656,5.291,9.685l-21.026,23.74
				c-2.153,2.432-2.739,5.876-1.51,8.883c6.432,15.777,10.861,32.299,13.184,49.178c0.442,3.213,2.667,5.899,5.743,6.929
				l30.089,10.027c0.171,3.371,0.256,7.014,0.256,11.034C494.908,260.019,494.848,263.68,494.677,267.034z"/>
			<path d="M256,85.333c-94.257,0-170.667,76.41-170.667,170.667S161.743,426.667,256,426.667S426.667,350.257,426.667,256
				C426.559,161.788,350.212,85.441,256,85.333z M256,409.6c-84.831,0-153.6-68.769-153.6-153.6S171.169,102.4,256,102.4
				S409.6,171.169,409.6,256C409.501,340.79,340.79,409.501,256,409.6z"/>
			<path d="M359.782,216.559c13.204-12.537,13.784-33.391,1.297-46.643l-2.91-2.927c-13.255-12.488-34.111-11.908-46.652,1.297
				l-21.077,21.069l-14.345,14.345l-62.293-62.345c-6.665-6.663-17.468-6.663-24.132,0l-48.273,48.273
				c-6.663,6.665-6.663,17.468,0,24.132l18.091,18.082L183.578,256l20.104,20.105l-10.829,10.795
				c-0.321,0.395-0.606,0.818-0.853,1.263c-0.263,0.282-0.502,0.584-0.717,0.905l-28.484,56.073
				c-2.436,4.612-2.274,10.164,0.426,14.627c2.7,4.463,7.542,7.183,12.758,7.167c2.41-0.009,4.783-0.594,6.921-1.707l56.107-28.493
				c0.315-0.214,0.615-0.451,0.896-0.708c0.461-0.243,0.898-0.528,1.306-0.853l10.778-10.778l3.994,3.994l24.09,24.098
				l18.082,18.091c6.665,6.663,17.468,6.663,24.132,0l48.273-48.273c6.663-6.665,6.663-17.468,0-24.132l-46.276-46.268
				l14.336-14.336L359.782,216.559z M230.144,322.099l-49.118,24.943l24.926-49.058l9.839-9.796l16.06,16.06l8.03,8.03
				L230.144,322.099z M358.579,310.298l-48.273,48.282l-12.066-12.075l12.066-12.066c3.234-3.348,3.188-8.671-0.104-11.962
				c-3.292-3.292-8.614-3.338-11.962-0.104l-12.066,12.066l-12.066-12.066l12.058-12.066c2.218-2.143,3.108-5.315,2.327-8.299
				c-0.781-2.983-3.111-5.313-6.094-6.094c-2.984-0.781-6.156,0.109-8.299,2.327l-12.058,12.066l-4.002-3.994l-8.03-8.038
				l12.066-12.066c3.234-3.348,3.188-8.671-0.104-11.962c-3.292-3.292-8.614-3.338-11.962-0.104l-12.066,12.066l-12.066-12.066
				l12.066-12.066c3.234-3.348,3.188-8.671-0.104-11.962c-3.292-3.292-8.614-3.338-11.962-0.104l-12.066,12.066l-12.075-12.075
				l12.066-12.058c3.234-3.348,3.188-8.671-0.104-11.962c-3.292-3.292-8.614-3.338-11.962-0.104l-12.066,12.058l-12.066-12.066
				l12.066-12.066c3.234-3.348,3.188-8.671-0.104-11.962c-3.292-3.292-8.614-3.338-11.962-0.104l-12.109,12.023l-12.075-12.066
				l48.273-48.273l104.55,104.542l0.043,0.06l0.051,0.043L358.579,310.298z M312.32,239.906l-24.149-24.141l12.57-12.57
				l24.141,24.132L312.32,239.906z M312.806,191.147l10.778-10.769c5.867-6.546,15.913-7.14,22.511-1.331h0.017l2.91,2.927
				c5.825,6.588,5.25,16.639-1.289,22.519l-10.769,10.769L312.806,191.147z"/>
		</g>
	</g>
</g>
<g>
</g>
<g>
</g>
<g>
</g>
<g>
</g>
<g>
</g>
<g>
</g>
<g>
</g>
<g>
</g>
<g>
</g>
<g>
</g>
<g>
</g>
<g>
</g>
<g>
</g>
<g>
</g>
<g>
</g>
</svg>
