<svg id="Layer_1" enable-background="new 0 0 66 66" viewBox="0 0 66 66" xmlns="http://www.w3.org/2000/svg"><g><g><path d="m39.8652649 36.1173096v5.9302406c0 .5159225.4178467.9342232.9342232.9342232s.9342232-.4183006.9342232-.9342232v-5.9302406c1.3458557-.4050179 2.3355598-1.6413346 2.3355598-3.1173096s-.9897041-2.7122917-2.3355598-3.1173096v-5.9297867c0-.5159206-.4178467-.9342232-.9342232-.9342232s-.9342232.4183025-.9342232.9342232v5.9297867c-1.3458557.4050179-2.3355599 1.6413346-2.3355599 3.1173096s.9897042 2.7122917 2.3355599 3.1173096zm.9342232-4.5186444c.7727394 0 1.4013329.6285915 1.4013329 1.4013348s-.6285934 1.4013367-1.4013329 1.4013367c-.7727432 0-1.4013367-.6285934-1.4013367-1.4013367s.6285934-1.4013348 1.4013367-1.4013348z"/><path d="m32.0703392 39.8542023v2.1933479c0 .5159225.4178467.9342232.9342232.9342232s.9342232-.4183006.9342232-.9342232v-2.1933479c1.3458519-.4050179 2.335556-1.6413345 2.335556-3.1173096s-.9897041-2.7122917-2.335556-3.1173096v-9.6666794c0-.5159206-.4178467-.9342232-.9342232-.9342232s-.9342232.4183025-.9342232.9342232v9.6666794c-1.3458557.4050179-2.3355598 1.6413345-2.3355598 3.1173096s.9897041 2.7122917 2.3355598 3.1173096zm.9342232-4.5186425c.7727394 0 1.4013329.6285934 1.4013329 1.4013329 0 .7727432-.6285934 1.4013367-1.4013329 1.4013367-.7727432 0-1.4013367-.6285934-1.4013367-1.4013367 0-.7727394.6285935-1.4013329 1.4013367-1.4013329z"/><path d="m24.2754116 32.3804169v9.6671333c0 .5159225.4178467.9342232.9342232.9342232.5163784 0 .9342232-.4183006.9342232-.9342232v-9.6671333c1.3458557-.4050179 2.3355598-1.6413345 2.3355598-3.1173096s-.9897041-2.7122936-2.3355598-3.1173096v-2.192894c0-.5159206-.4178448-.9342232-.9342232-.9342232-.5163765 0-.9342232.4183025-.9342232.9342232v2.192894c-1.3458538.4050159-2.3355579 1.6413345-2.3355579 3.1173096s.9897041 2.7122917 2.3355579 3.1173096zm.9342232-4.5186463c.7727413 0 1.4013367.6285954 1.4013367 1.4013367s-.6285954 1.4013348-1.4013367 1.4013348-1.4013348-.6285935-1.4013348-1.4013348.6285935-1.4013367 1.4013348-1.4013367z"/><path d="m46.0836868 18.0524254h-26.1582527c-1.0300179 0-1.8684464.8379745-1.8684464 1.8684483v26.1582546c0 1.0304718.8384285 1.8684464 1.8684464 1.8684464h26.1582527c1.0300179 0 1.8684502-.8379745 1.8684502-1.8684464v-26.1582547c0-1.0304737-.8384323-1.8684482-1.8684502-1.8684482zm0 28.0267029h-26.1582527v-26.1582547l26.1582527.0022793zm0-26.1582547s0 0 0-.0004559l.934227.0004559z"/><path d="m56.0627251 25.4212952c.3010712 0 .5838928-.1455154.7599716-.3904762l2.0117378-2.8112793c.502121.3143539 1.0904045.5040035 1.7251549.5040035 1.8027573 0 3.269783-1.4670219 3.269783-3.2697811s-1.4670258-3.269783-3.269783-3.269783c-1.8027611 0-3.269783 1.4670238-3.269783 3.269783 0 .4695625.1036072.9139805.28265 1.3179703l-1.9896126 2.7811165h-3.2506256v-5.2093906c0-2.5754995-2.0956154-4.67066-4.6711159-4.67066h-5.2139511v-3.2551843l2.781517-1.9899006c.4039307.1789303.8481789.2824793 1.3175697.2824793 1.8027611 0 3.269783-1.4670224 3.269783-3.2697816s-1.4670219-3.2697818-3.269783-3.2697818c-1.8027573 0-3.2697792 1.4670227-3.2697792 3.2697818 0 .6348658.1896477 1.2232032.5041161 1.7253823l-2.8113937 2.0115108c-.2454147.1756229-.3904762.4584446-.3904762.7599688v3.7355251h-6.6444817v-5.115078c1.3458557-.4050169 2.3355598-1.6413345 2.3355598-3.1173091 0-1.8027592-1.4670258-3.2697818-3.269783-3.2697818-1.8027592 0-3.2697811 1.4670227-3.2697811 3.2697818 0 1.4759746.9897041 2.7122922 2.3355579 3.1173091v5.115078h-6.6444817v-3.7355251c0-.3015242-.1450596-.5843458-.3904762-.7599688l-2.8113937-2.0115108c.3144684-.5021791.504118-1.0905166.504118-1.7253823 0-1.8027592-1.4670219-3.2697818-3.2697811-3.2697818s-3.269783 1.4670227-3.269783 3.2697818 1.4670238 3.2697816 3.269783 3.2697816c.4693909 0 .9136391-.103549 1.3175716-.2824793l2.7815151 1.9899006v3.2551842h-5.2048283c-2.5755005 0-4.6702042 2.0951605-4.6702042 4.67066v5.2093906h-3.2606592l-1.9896145-2.7811165c.1790438-.4039898.28265-.8484077.28265-1.3179703 0-1.8027592-1.4670224-3.269783-3.2697816-3.269783s-3.2697818 1.4670238-3.2697818 3.269783 1.4670227 3.2697811 3.2697818 3.2697811c.6347518 0 1.223032-.1896496 1.7251539-.5040035l2.0117393 2.8112793c.1760798.2449608.4589005.3904762.7599688.3904762h3.7405434v6.6444817h-5.1200962c-.4050169-1.3458538-1.6413345-2.3355579-3.1173091-2.3355579-1.8027592 0-3.2697818 1.4670219-3.2697818 3.2697811 0 1.8027573 1.4670227 3.269783 3.2697818 3.269783 1.4759746 0 2.7122922-.9897041 3.1173091-2.3355598h5.1200962v6.6444817h-3.7405434c-.3010683 0-.583889.1455154-.7599688.3904762l-2.0117392 2.8112793c-.5021219-.3143539-1.0904021-.5040016-1.7251539-.5040016-1.8027592 0-3.2697818 1.4670219-3.2697818 3.2697792 0 1.8027611 1.4670227 3.269783 3.2697818 3.269783s3.2697816-1.4670219 3.2697816-3.269783c0-.4695625-.1036062-.9139786-.28265-1.3179703l1.9896145-2.7811165h3.2606592v5.2093887c0 2.5755005 2.0947037 4.6711197 4.6702042 4.6711197h5.2048283v3.2551842l-2.7811165 1.9896126c-.4039898-.1790428-.8484077-.28265-1.3179703-.28265-1.8027592 0-3.269783 1.4670219-3.269783 3.269783 0 1.8027573 1.4670238 3.269783 3.269783 3.269783s3.2697811-1.4670258 3.2697811-3.269783c0-.6347504-.1895924-1.2229767-.5039463-1.7250977l2.8112221-2.0113411c.2454166-.175621.3904762-.4584427.3904762-.7599678v-3.7355232h6.6444817v5.1146202c-1.3458538.4050179-2.3355579 1.6413345-2.3355579 3.1173096 0 1.8027573 1.4670219 3.269783 3.2697811 3.269783 1.8027573 0 3.269783-1.4670258 3.269783-3.269783 0-1.475975-.9897041-2.7122917-2.3355598-3.1173096v-5.1146202h6.6444817v3.7355232c0 .3015251.1450615.5843468.3904762.7599678l2.8112221 2.0113411c-.3143539.502121-.5039444 1.0903473-.5039444 1.7250977 0 1.8027573 1.4670219 3.269783 3.2697792 3.269783 1.8027611 0 3.269783-1.4670258 3.269783-3.269783 0-1.8027611-1.4670219-3.269783-3.269783-3.269783-.4695625 0-.9139786.1036072-1.3179703.28265l-2.7811165-1.9896126v-3.2551842h5.2139511c2.5755005 0 4.6711159-2.0956192 4.6711159-4.6711197v-5.2093887h3.2506256l1.9896126 2.7811165c-.1790428.4039917-.28265.8484077-.28265 1.3179703 0 1.8027611 1.4670219 3.269783 3.269783 3.269783 1.8027573 0 3.269783-1.4670219 3.269783-3.269783 0-1.8027573-1.4670258-3.2697792-3.269783-3.2697792-.6347504 0-1.2230339.1896477-1.7251549.5040016l-2.0117378-2.8112793c-.1760788-.2449608-.4589005-.3904762-.7599716-.3904762h-3.7305069v-6.6444817h5.1100616c.4050179 1.3458557 1.6413345 2.3355598 3.1173096 2.3355598 1.8027573 0 3.269783-1.4670258 3.269783-3.269783 0-1.8027592-1.4670258-3.2697811-3.269783-3.2697811-1.475975 0-2.7122917.9897041-3.1173096 2.3355579h-5.1100616v-6.6444817h3.7305068zm4.4968643-7.3688698c.7727394 0 1.4013329.6285954 1.4013329 1.4013367s-.6285934 1.4013348-1.4013329 1.4013348c-.4316444 0-.8133965-.2003136-1.0706749-.50811-.016819-.0285664-.0435638-.0502357-.0635757-.0770912-.1663284-.2304192-.267086-.5109043-.267086-.8161335-.0000001-.7727415.6285934-1.4013368 1.4013366-1.4013368zm-14.0133515-14.0133495c.7727432 0 1.4013367.6285939 1.4013367 1.4013352s-.6285934 1.4013348-1.4013367 1.4013348c-.3044319 0-.5843468-.1001277-.8144226-.2656584-.0274277-.0205274-.0494919-.0477262-.0786896-.0649462-.3078537-.2572193-.5082207-.6390853-.5082207-1.0707302.0000001-.7727413.6285935-1.4013352 1.4013329-1.4013352zm-14.9475727 1.4013352c0-.7727413.6285915-1.4013352 1.4013348-1.4013352s1.4013367.6285939 1.4013367 1.4013352-.6285935 1.4013348-1.4013367 1.4013348-1.4013348-.6285935-1.4013348-1.4013348zm-13.5462398 0c0-.7727413.6285954-1.4013352 1.4013367-1.4013352s1.4013348.6285939 1.4013348 1.4013352c0 .4316449-.2003136.8134537-.50811 1.070673-.02948.0173917-.0518875.0448751-.0795441.0656309-.2299061.1651883-.5095921.2650309-.8136806.2650309-.7727415 0-1.4013368-.6285935-1.4013368-1.4013348zm-14.0133495 14.013351c0-.7727413.6285939-1.4013367 1.4013352-1.4013367s1.4013348.6285954 1.4013348 1.4013367c0 .3052292-.1007552.5857143-.2670836.8161335-.0200143.0268555-.0467567.0485249-.0635781.0770912-.2572761.3077965-.6390281.50811-1.070673.50811-.7727414 0-1.4013353-.6285934-1.4013353-1.4013347zm1.4013352 14.9475746c-.7727413 0-1.4013352-.6285934-1.4013352-1.4013367s.6285939-1.4013348 1.4013352-1.4013348 1.4013348.6285916 1.4013348 1.4013348-.6285935 1.4013367-1.4013348 1.4013367zm0 13.5462379c-.7727413 0-1.4013352-.6285934-1.4013352-1.4013367 0-.7727394.6285939-1.4013329 1.4013352-1.4013329.4316449 0 .8133969.2003098 1.070673.5081062.0168214.0285683.0435638.0502357.0635781.077095.1663284.2304192.2670836.5109024.2670836.8161316.0000001.7727434-.6285934 1.4013368-1.4013347 1.4013368zm14.013351 14.0133476c-.7727413 0-1.4013367-.6285934-1.4013367-1.4013329 0-.7727432.6285954-1.4013367 1.4013367-1.4013367s1.4013348.6285934 1.4013348 1.4013367c-.0000001.7727395-.6285935 1.4013329-1.4013348 1.4013329zm14.9475746-1.4013328c0 .7727394-.6285934 1.4013329-1.4013367 1.4013329s-1.4013348-.6285934-1.4013348-1.4013329c0-.7727432.6285915-1.4013367 1.4013348-1.4013367s1.4013367.6285935 1.4013367 1.4013367zm13.5462379 0c0 .7727394-.6285934 1.4013329-1.4013367 1.4013329-.7727394 0-1.4013329-.6285934-1.4013329-1.4013329 0-.7727432.6285934-1.4013367 1.4013329-1.4013367.7727433 0 1.4013367.6285935 1.4013367 1.4013367zm14.0133476-14.0133515c0 .7727432-.6285934 1.4013367-1.4013329 1.4013367-.7727432 0-1.4013367-.6285934-1.4013367-1.4013367 0-.3052292.1007576-.5857124.267086-.8161316.0200119-.0268593.0467567-.0485268.0635757-.077095.2572784-.3077965.6390305-.5081062 1.0706749-.5081062.7727396 0 1.401333.6285934 1.401333 1.4013328zm-1.4013328-14.9475727c.7727394 0 1.4013329.6285915 1.4013329 1.4013348s-.6285934 1.4013367-1.4013329 1.4013367c-.7727432 0-1.4013367-.6285934-1.4013367-1.4013367s.6285935-1.4013348 1.4013367-1.4013348zm-12.8984871 18.8605442h-29.3130817c-1.5445709 0-2.8017578-1.2571869-2.8017578-2.8026695v-29.3130817c0-1.5450268 1.2571869-2.8022137 2.8017578-2.8022137h29.3130817c1.5454826 0 2.8026695 1.2571869 2.8026695 2.8022137v6.1210346c-.0002251.0079823-.0045624.0145397-.0045624.0225792s.0043373.0145969.0045624.0225811v8.4677677c-.000225.0079804-.0045624.0145378-.0045624.0225792s.0043373.0145988.0045624.0225792v8.4677696c-.0002251.0079803-.0045624.0145378-.0045624.0225792s.0043373.0145988.0045624.0225792v6.1210327c0 1.5454827-1.2571869 2.8026695-2.8026695 2.8026695z"/></g></g></svg>