<svg id="Layer_1" height="512" viewBox="0 0 32 32" width="512" xmlns="http://www.w3.org/2000/svg" data-name="Layer 1"><g fill="rgb(0,0,0)"><path d="m24.989 0h-17.978a.269.269 0 0 0 -.269.27v31.46a.269.269 0 0 0 .269.27h17.978a.269.269 0 0 0 .269-.27v-31.46a.269.269 0 0 0 -.269-.27zm-.27 31.461h-17.438v-30.922h17.438z"/><path d="m24 18.734a.268.268 0 0 0 .269-.269v-4.611a.27.27 0 1 0 -.539 0v4.611a.269.269 0 0 0 .27.269z"/><path d="m9.708 29.3h4.944a.27.27 0 0 0 .27-.27v-8.985a.269.269 0 0 0 -.27-.269h-3.326v-3.326a.269.269 0 0 0 -.269-.27h-1.349a.269.269 0 0 0 -.269.27v12.584a.269.269 0 0 0 .269.266zm.27-12.585h.809v3.326a.27.27 0 0 0 .27.27h3.325v8.449h-4.4z"/><path d="m22.293 16.18h-1.349a.269.269 0 0 0 -.269.27v3.326h-3.326a.269.269 0 0 0 -.27.269v8.989a.27.27 0 0 0 .27.27h4.944a.27.27 0 0 0 .269-.27v-12.584a.27.27 0 0 0 -.269-.27zm-.27 12.584h-4.405v-8.449h3.326a.27.27 0 0 0 .27-.27v-3.326h.809z"/><path d="m9.708 14.023h1.349a.269.269 0 0 0 .269-.27v-3.326h3.326a.269.269 0 0 0 .27-.269v-7.191a.27.27 0 0 0 -.27-.27h-4.944a.269.269 0 0 0 -.269.27v10.786a.269.269 0 0 0 .269.27zm.27-10.787h4.4v6.652h-3.321a.27.27 0 0 0 -.27.27v3.325h-.809z"/><path d="m17.349 10.427h3.326v3.326a.269.269 0 0 0 .269.27h1.349a.27.27 0 0 0 .269-.27v-10.786a.27.27 0 0 0 -.269-.27h-4.944a.27.27 0 0 0 -.27.27v7.191a.269.269 0 0 0 .27.269zm.269-7.191h4.405v10.247h-.809v-3.325a.27.27 0 0 0 -.27-.27h-3.326z"/><path d="m19.4 18.276v-6.35a.224.224 0 0 0 -.224-.224h-6.35a.224.224 0 0 0 -.224.224v6.35a.224.224 0 0 0 .224.224h6.35a.224.224 0 0 0 .224-.224zm-.448-.224h-5.9v-5.9h5.9z"/></g></svg>