<svg id="Layer_1" viewBox="0 0 512 512" xmlns="http://www.w3.org/2000/svg" data-name="Layer 1"><path d="m203.83 126.32a70.84 70.84 0 1 1 0 126.63 70.84 70.84 0 1 1 0-126.63zm41.88 32.32a7.25 7.25 0 1 1 12.44 7.45l-16 26.76a7.25 7.25 0 0 1 -11.21 2.35l-25.22-18.53a7.25 7.25 0 1 1 8.58-11.7l11.7 8.62a56.3 56.3 0 0 0 -110.27 16c0 38.34 37.45 65.2 73.56 53.61a71 71 0 0 1 -21.38-32.64l-6 10a7.25 7.25 0 1 1 -12.45-7.45l16-26.76a7.25 7.25 0 0 1 11.21-2.35l25.23 18.53a7.25 7.25 0 0 1 -8.58 11.7l-11.74-8.62a56.3 56.3 0 0 0 110.27-16c0-38.35-37.44-65.21-73.56-53.62a70.9 70.9 0 0 1 21.38 32.64l6-10zm103.17 193.41a42.59 42.59 0 1 0 0-60.23 42.59 42.59 0 0 0 0 60.23zm30.12 27a57.13 57.13 0 1 1 57.13-57.13 57.13 57.13 0 0 1 -57.13 57.15zm55.24 14.51c-3.09 5.58-4.35 13.32-11.85 17-8.8 4.32-18.95-1.92-22.77-1a11.15 11.15 0 0 0 -3.4 2.12 246.51 246.51 0 0 0 49.47 58l-7.1-27.3a7.25 7.25 0 0 1 5.1-8.8l19-5.24a207 207 0 0 1 -28.46-34.79zm-38.2-93a7.26 7.26 0 0 1 10.63 9.89l-30.54 32.85a7.25 7.25 0 0 1 -11-.45l-13.85-15.31a7.24 7.24 0 0 1 10.72-9.71l8.87 9.8 25.13-27.06zm-168.11-245.31a7.26 7.26 0 0 1 -6.33-10.86l5.86-13a.74.74 0 0 0 -.82-.78l-46 .05a.88.88 0 0 0 -.38 1.11l5.74 12.62a7.26 7.26 0 0 1 -6.32 10.86h-28.32v29.66h104.91v-29.66zm87.07 404.08-2.71 10.38a246.7 246.7 0 0 0 49.49-58.06c-3.63-2.87-3.93-2.58-10-1.06-5.37 1.35-10.71 2.69-16.23 0-7.5-3.67-8.77-11.41-11.85-17a207 207 0 0 1 -28.46 34.79l19 5.24a7.26 7.26 0 0 1 5.11 8.8zm-44.2-410.9c0-4.52-3.12-7.72-7.27-7.72h-24.31l1.35-3a15.33 15.33 0 0 0 -13.93-21.71h-45.64a15.4 15.4 0 0 0 -15.37 15.32c0 3.76 1.26 6 2.78 9.36h-24.32c-4.15 0-7.28 3.2-7.28 7.72h-86.25a23.06 23.06 0 0 0 -23 23v370.93a23.06 23.06 0 0 0 23 23h247.9l-5.62 21.55a7.26 7.26 0 0 0 11.44 7.56 261.88 261.88 0 0 0 69.55-74.69 15.8 15.8 0 0 0 10.34 0 261.88 261.88 0 0 0 69.55 74.69 7.25 7.25 0 0 0 11.43-7.56l-10.74-41.22 24.41-6.66a7.25 7.25 0 0 0 3.18-12.59 192.06 192.06 0 0 1 -33.48-37.65c16-5.56 9.34-23.18 11.34-27.27 1.6-3.26 13-7.34 15.27-16.95s-6.1-18.19-6.1-22.6 8.35-13 6.09-22.61-13.66-13.69-15.26-16.95 2.24-14.62-3.83-22.18-17.95-6.26-20.71-8.47-4.08-14.12-12.89-18.43-18.95 1.92-22.77 1-10.23-10.42-19.54-11v-151.86a23.06 23.06 0 0 0 -23-23zm4.45 388.15h-211.67a7.28 7.28 0 0 1 -7.27-7.27v-344.84a7.27 7.27 0 0 1 7.27-7.27h73.23v-14.2h-86.25a8.52 8.52 0 0 0 -8.48 8.47v370.86a8.52 8.52 0 0 0 8.48 8.48h251.69l1.34-5.13-24.42-6.68a7.2 7.2 0 0 1 -3.91-2.38zm61.51-203.8v-141h-66c0 4.52-3.12 7.72-7.27 7.72h-119.4c-4.15 0-7.28-3.2-7.28-7.72h-66v330.22h210.12a193.31 193.31 0 0 0 28.59-33.27c-16-5.57-9.34-23.19-11.34-27.28-1.6-3.26-13-7.34-15.27-16.95s6.09-18.19 6.09-22.6-8.35-13-6.09-22.61 13.67-13.69 15.27-16.95-2.25-14.61 3.82-22.18 18-6.25 20.72-8.47 4.1-15 14-18.95zm7.24 13.59c-2.37 0-1.91-1.56-5 5.55-4.72 11-7.91 13.53-19.67 15.74-2.77.52-5.55 1-6 1.63-1.33 1.66 1.4 12.27-2.12 19.45s-13.59 11.55-14.13 13.88 6.49 11 6.49 19.32-7.06 16.9-6.49 19.31 10.56 6.61 14.13 13.88.81 17.81 2.12 19.45 12.28 1.26 18.5 6.25 8.28 15.81 10.16 16.73 11.83-4 19.7-2.16 14.5 10.69 17.33 10.69 9.39-8.83 17.32-10.69 17.77 3.11 19.71 2.16 3.92-11.72 10.16-16.73 17.17-4.6 18.5-6.25-1.41-12.25 2.12-19.45 13.58-11.54 14.13-13.88-6.49-11-6.49-19.31 7.05-16.91 6.49-19.32-10.57-6.61-14.13-13.88-.8-17.79-2.12-19.45-12.26-1.24-18.5-6.25-8.28-15.81-10.16-16.73-11.84 4-19.71 2.16-14.46-10.69-17.34-10.69-9.62 8.88-17.33 10.69c-6.43 1.51-12.06-1.11-17.69-2.1zm-73.19-169.17h73.19a7.26 7.26 0 0 1 7.27 7.27v148.68c8.3 2.09 6.83 2 14.23-4v-157.71a8.52 8.52 0 0 0 -8.43-8.44h-86.26zm-143.3 214.46v26.73h-26.73v-26.73zm-34-14.54h41.27a7.27 7.27 0 0 1 7.27 7.27v41.27a7.26 7.26 0 0 1 -7.27 7.27h-41.27a7.27 7.27 0 0 1 -7.27-7.27v-41.27a7.28 7.28 0 0 1 7.27-7.27zm34 87v26.73h-26.73v-26.73zm-34-14.54h41.27a7.26 7.26 0 0 1 7.27 7.27v41.27a7.27 7.27 0 0 1 -7.27 7.27h-41.27a7.28 7.28 0 0 1 -7.27-7.27v-41.27a7.27 7.27 0 0 1 7.27-7.27zm72.86-51.4a7.28 7.28 0 0 1 0-14.55h99.39a7.28 7.28 0 0 1 0 14.55zm0 28.24a7.27 7.27 0 0 1 0-14.54h78.56a7.27 7.27 0 1 1 0 14.54zm0 44.21a7.27 7.27 0 0 1 0-14.54h99.39a7.27 7.27 0 0 1 0 14.54zm0 28.25a7.28 7.28 0 0 1 0-14.55h78.56a7.28 7.28 0 0 1 0 14.55z" fill-rule="evenodd"/></svg>