<svg id="icons" enable-background="new 0 0 64 64" height="512" viewBox="0 0 64 64" width="512" xmlns="http://www.w3.org/2000/svg"><path d="m63 7.502h-7.003c0-.553-.447-1-1-1s-1 .447-1 1h-7.003c-.553 0-1 .447-1 1s.447 1 1 1h7.003v3.002h-12.458c-1.278-4.053-5.07-7-9.539-7s-8.261 2.947-9.539 7h-12.458v-3.002h7.003c.553 0 1-.447 1-1s-.447-1-1-1h-7.003c0-.553-.447-1-1-1s-1 .447-1 1h-7.003c-.553 0-1 .447-1 1s.447 1 1 1h7.003v3.002h-3.004c-.553 0-1 .447-1 1v4c0 .553.447 1 1 1h17.001c0 5.514 4.486 10 10 10s10-4.486 10-10h17.001c.553 0 1-.447 1-1v-4c0-.553-.447-1-1-1h-3.004v-3.002h7.003c.553 0 1-.447 1-1s-.447-1-1-1zm-31 .002c4.411 0 8 3.589 8 8s-3.589 8-8 8-8-3.589-8-8 3.589-8 8-8zm-26.001 9v-2h16.052c-.033.329-.051.662-.051 1v1zm26.001 10c-2.763 0-5.202-1.408-6.64-3.544 1.768 1.577 4.09 2.544 6.64 2.544s4.872-.967 6.64-2.544c-1.438 2.136-3.877 3.544-6.64 3.544zm10-11c0-.338-.018-.671-.051-1h16.052v2h-16.001z"/><path d="m32 19.51c2.206 0 4-1.794 4-4s-1.794-4-4-4-4 1.794-4 4 1.794 4 4 4zm0-6c1.103 0 2 .897 2 2s-.897 2-2 2-2-.897-2-2 .897-2 2-2z"/><path d="m9.001 28.504c.553 0 1-.447 1-1v-6c0-.553-.447-1-1-1s-1 .447-1 1v6c0 .553.447 1 1 1z"/><path d="m14 23.5v-1.996c0-.553-.447-1-1-1s-1 .447-1 1v1.996c0 .553.447 1 1 1s1-.447 1-1z"/><path d="m5.002 20.504c-.553 0-1 .447-1 1v1.996c0 .553.447 1 1 1s1-.447 1-1v-1.996c0-.553-.447-1-1-1z"/><path d="m30.998 38.504v-7.002c0-.553-.447-1-1-1s-1 .447-1 1v7.002c0 .553.447 1 1 1s1-.447 1-1z"/><path d="m35.002 38.504v-7.002c0-.553-.447-1-1-1s-1 .447-1 1v7.002c0 .553.447 1 1 1s1-.447 1-1z"/><path d="m39.001 32.498v-1.996c0-.553-.447-1-1-1s-1 .447-1 1v1.996c0 .553.447 1 1 1s1-.447 1-1z"/><path d="m26.999 32.498v-1.996c0-.553-.447-1-1-1s-1 .447-1 1v1.996c0 .553.447 1 1 1s1-.447 1-1z"/><path d="m55.999 27.504v-6c0-.553-.447-1-1-1s-1 .447-1 1v6c0 .553.447 1 1 1s1-.447 1-1z"/><path d="m59.998 23.5v-1.996c0-.553-.447-1-1-1s-1 .447-1 1v1.996c0 .553.447 1 1 1s1-.447 1-1z"/><path d="m51 20.504c-.553 0-1 .447-1 1v1.996c0 .553.447 1 1 1s1-.447 1-1v-1.996c0-.553-.447-1-1-1z"/><path d="m28.293 47.203c.195.195.451.293.707.293s.512-.098.707-.293l1.293-1.293v11.586c0 .553.447 1 1 1s1-.447 1-1v-11.586l1.293 1.293c.195.195.451.293.707.293s.512-.098.707-.293c.391-.391.391-1.023 0-1.414l-2.999-2.999c-.092-.093-.203-.166-.326-.217-.244-.102-.52-.102-.764 0-.123.051-.234.124-.326.217l-2.999 2.999c-.391.391-.391 1.024 0 1.414z"/><path d="m51.292 36.192c.195.196.451.294.708.294.255 0 .511-.097.706-.292l1.294-1.289v22.591c0 .553.447 1 1 1s1-.447 1-1v-22.591l1.294 1.289c.195.195.451.292.706.292.257 0 .513-.098.708-.294.391-.392.389-1.024-.002-1.414l-2.998-2.986c-.092-.092-.202-.166-.324-.217-.003-.001-.005-.003-.008-.004-.032-.014-.066-.011-.1-.02-.217-.063-.448-.064-.659.023-.123.051-.233.125-.325.217l-2.998 2.986c-.391.391-.393 1.024-.002 1.415z"/><path d="m5.292 36.192c.195.197.451.294.708.294.255 0 .511-.097.706-.292l1.294-1.289v22.591c0 .553.447 1 1 1s1-.447 1-1v-22.591l1.294 1.289c.195.195.451.292.706.292.257 0 .513-.098.708-.294.391-.392.389-1.024-.002-1.414l-2.998-2.986c-.092-.092-.202-.166-.324-.217-.003-.001-.005-.003-.008-.004-.032-.014-.066-.011-.1-.02-.217-.063-.448-.064-.659.023-.123.051-.233.125-.325.217l-2.998 2.986c-.391.391-.393 1.024-.002 1.415z"/><path d="m20.011 58.496c.553 0 1-.447 1-1v-16.585l1.294 1.289c.195.195.451.292.706.292.257 0 .513-.098.708-.294.391-.392.389-1.024-.002-1.414l-2.998-2.986c-.092-.092-.202-.166-.324-.217-.003-.001-.005-.003-.008-.004-.032-.014-.066-.011-.1-.02-.217-.063-.448-.064-.659.023-.123.051-.233.125-.325.217l-2.998 2.986c-.391.39-.393 1.022-.002 1.414.195.196.451.294.708.294.255 0 .511-.097.706-.292l1.294-1.289v16.585c0 .554.447 1.001 1 1.001z"/><path d="m44.001 58.496c.553 0 1-.447 1-1v-16.585l1.294 1.289c.195.195.451.292.706.292.257 0 .513-.098.708-.294.391-.392.389-1.024-.002-1.414l-2.998-2.986c-.092-.092-.202-.166-.324-.217-.003-.001-.005-.003-.008-.004-.032-.014-.066-.011-.1-.02-.217-.063-.448-.064-.659.023-.123.051-.233.125-.325.217l-2.998 2.986c-.391.39-.393 1.022-.002 1.414.195.196.451.294.708.294.255 0 .511-.097.706-.292l1.294-1.289v16.585c0 .554.447 1.001 1 1.001z"/></svg>