<svg id="Layer_1" enable-background="new 0 0 512 512" viewBox="0 0 512 512" xmlns="http://www.w3.org/2000/svg"><path clip-rule="evenodd" d="m348.38 404.419c-2.686-3.139-2.318-7.861.82-10.547 3.139-2.686 7.861-2.319 10.546.82l29.345 34.152 57.031-68.105c2.654-3.171 7.376-3.591 10.547-.937s3.591 7.376.937 10.547l-62.695 74.869-.005-.004c-2.951 3.522-8.407 3.577-11.421.063zm-38.074 37.597c15.466 36.663 51.56 61.484 92.659 61.484 55.515 0 100.521-45.006 100.521-100.521 0-41.102-24.826-77.201-61.495-92.663l1.616-5.163 34.947-7.833c3.677-.482 6.516-3.627 6.516-7.436v-86.184h-.028c.003-3.431-2.372-6.525-5.861-7.295l-35.543-7.966c-4.056-13.68-9.604-27.042-16.397-39.542l19.359-30.543c2.04-2.924 1.756-6.978-.854-9.588l-60.942-60.942-.003.003c-2.426-2.43-6.293-2.944-9.313-1.028l-30.831 19.541c-12.498-6.79-25.845-12.339-39.522-16.395l-7.829-34.929c-.482-3.677-3.627-6.516-7.436-6.516h-86.185v.028c-3.431-.003-6.525 2.372-7.295 5.861l-7.969 35.556c-13.679 4.056-27.025 9.603-39.524 16.394l-30.558-19.369c-2.924-2.04-6.978-1.756-9.587.853l-60.942 60.943.003.003c-2.43 2.426-2.944 6.293-1.028 9.313l19.538 30.827c-6.792 12.498-12.34 25.85-16.396 39.528l-35.434 7.942c-3.41.692-5.977 3.707-5.977 7.321v86.047c-.068 3.486 2.324 6.652 5.859 7.433l35.543 7.966c4.056 13.682 9.603 27.04 16.397 39.542l-19.359 30.543c-2.04 2.924-1.756 6.978.854 9.588l60.942 60.942.003-.003c2.426 2.43 6.293 2.944 9.313 1.028l30.831-19.541c12.5 6.791 25.843 12.338 39.522 16.394l7.829 34.929c.482 3.677 3.627 6.516 7.436 6.516h86.185v-.028c3.431.003 6.525-2.372 7.295-5.861l7.971-35.561zm117.524-136.457 2.559-8.684.025.007c.706-2.594 2.792-4.719 5.6-5.339l34.056-7.633v-74.235l-33.426-7.492c-2.901-.389-5.428-2.468-6.242-5.47-4.043-14.88-10.563-30.986-18.302-44.202-1.411-2.353-1.473-5.398.096-7.873l18.703-29.509-52.458-52.458-29.436 18.656c-2.281 1.489-5.296 1.678-7.823.232-13.988-8.006-28.674-14.121-44.321-18.378l.007-.025c-2.594-.706-4.719-2.792-5.339-5.6l-7.634-34.056h-74.234l-7.495 33.439c-.389 2.901-2.468 5.428-5.47 6.242-14.871 4.04-30.976 10.564-44.185 18.298-2.353 1.411-5.398 1.473-7.873-.096l-29.523-18.711-52.458 52.458 18.654 29.432c1.489 2.281 1.678 5.296.232 7.823-8.009 13.994-14.121 28.674-18.38 44.327l-.025-.007c-.706 2.594-2.792 4.719-5.6 5.339l-34.081 7.638v74.222l33.455 7.498c2.901.389 5.428 2.468 6.242 5.47 4.042 14.88 10.563 30.986 18.302 44.202 1.411 2.353 1.473 5.398-.096 7.873l-18.703 29.508 52.458 52.458 29.436-18.656c2.281-1.489 5.296-1.678 7.823-.232 13.988 8.005 28.675 14.122 44.321 18.378l-.007.025c2.594.706 4.719 2.792 5.339 5.6l7.633 34.056h74.235l7.492-33.426c.389-2.901 2.468-5.428 5.47-6.242l8.69-2.56c-4.009-15.745-4.139-32.43-.368-48.257-67.147 29.579-145.082 4.09-182.504-57.655-34.687-57.233-25.591-130.608 21.528-177.727 56.651-56.651 148.499-56.651 205.15 0 42.153 42.153 54.401 106.11 30.233 160.976 15.825-3.769 32.501-3.641 48.244.366zm-68.779 6.976c29.867-50.896 21.547-115.863-20.303-157.712-50.792-50.792-133.147-50.792-183.939 0-39.662 39.662-49.638 100.669-23.958 151l29.536-29.536c6.523-6.523 9.316-14.651 8.192-23.799-5.468-44.493 25.25-85.553 69.781-92.521 17.076-2.672 34.822-.022 50.564 7.945 5.276 2.445 5.912 8.686 2.385 12.212l-50.297 50.297 22.138 22.138 50.297-50.296.011.011c3.541-3.539 9.598-2.686 11.942 1.864 8.17 15.868 10.905 33.814 8.205 51.074-6.968 44.531-48.028 75.249-92.521 69.781-9.149-1.125-17.277 1.669-23.8 8.192l-29.535 29.536c28.805 14.697 62.669 18.18 94.214 9.34 10.829-3.035 21.081-7.432 30.559-12.995 4.923-10.121 11.494-19.292 19.366-27.164 7.87-7.873 17.041-14.444 27.163-19.367zm-220.346 6.645 32.288-32.288c9.76-9.76 14.153-22.516 12.469-36.221-6.108-49.683 41.7-89.088 89.379-73.289l-47.736 47.736c-2.928 2.928-2.928 7.677 0 10.606l32.743 32.743c2.928 2.928 7.677 2.928 10.606 0l47.736-47.736c15.799 47.679-23.606 95.487-73.289 89.379-13.706-1.685-26.461 2.708-36.222 12.468l-32.287 32.288c-14.101-9.463-26.225-21.586-35.687-35.686zm324.733 23.326c-33.397-33.397-87.549-33.397-120.946 0s-33.397 87.549 0 120.946 87.549 33.397 120.946 0 33.397-87.549 0-120.946z" fill-rule="evenodd"/></svg>